STARTFONT 2.1
COMMENT
COMMENT Converted from TrueType font "GOTHIC.TTF" by "ttf2bdf 2.6".
COMMENT
FONT -FreeType-Century Gothic-Medium-R-Normal--17-120-100-100-P-88-ISO10646-1
SIZE 12 100 100
FONTBOUNDINGBOX 23 27 -3 -6
STARTPROPERTIES 21
FOUNDRY "FreeType"
FAMILY_NAME "Century Gothic"
WEIGHT_NAME "Medium"
SLANT "R"
SETWIDTH_NAME "Normal"
ADD_STYLE_NAME ""
PIXEL_SIZE 17
POINT_SIZE 120
RESOLUTION_X 100
RESOLUTION_Y 100
SPACING "P"
AVERAGE_WIDTH 88
CHARSET_REGISTRY "ISO10646"
CHARSET_ENCODING "1"
FONT_ASCENT 17
FONT_DESCENT 3
COPYRIGHT "Typeface © The Monotype Corporation plc. Data © The Monotype Corporation plc / Type Solutions Inc. 1990-91 All Rights Reserved"
_TTF_FONTFILE "GOTHIC.TTF"
_TTF_PSNAME "CenturyGothic"
_XFREE86_GLYPH_RANGES "32_126 160_383 402 506_511 710_711 713 728_733 894 900_906 908 910_929 931_974 1025_1036 1038_1103 1105_1116 1118_1119 1168_1169 7808_7813 7922_7923 8211_8213 8215_8222 8224_8226 8230 8240 8242_8243 8249_8250 8252 8254 8260 8319 8355_8356 8359 8364 8453 8467 8470 8482 8486 8494 8539_8542 8592_8597 8616 8706 8710 8719 8721_8722 8725 8729_8730 8734_8735 8745 8747 8776 8800_8801 8804_8805 8962 8976 8992_8993 9472 9474 9484 9488 9492 9496 9500 9508 9516 9524 9532 9552_9580 9600 9604 9608"
_XFREE86_GLYPH_RANGES "9612 9616_9619 9632_9633 9642_9644 9650 9658 9660 9668 9674_9675 9679 9688_9689 9702 9786_9788 9792 9794 9824 9827 9829_9830 9834_9835 61440_61446 61696_61704 64257_64258"
ENDPROPERTIES
CHARS 668
STARTCHAR 0020
ENCODING 32
SWIDTH 300 0
DWIDTH 5 0
BBX 1 1 0 0
BITMAP
00
ENDCHAR
STARTCHAR 0021
ENCODING 33
SWIDTH 240 0
DWIDTH 4 0
BBX 1 13 1 0
BITMAP
80
80
80
80
80
80
80
80
80
80
00
80
80
ENDCHAR
STARTCHAR 0022
ENCODING 34
SWIDTH 300 0
DWIDTH 5 0
BBX 4 4 0 9
BITMAP
90
90
90
90
ENDCHAR
STARTCHAR 0023
ENCODING 35
SWIDTH 720 0
DWIDTH 12 0
BBX 9 13 1 0
BITMAP
1100
1100
1100
2200
FF80
2200
2200
2200
FF80
2200
4400
4400
4400
ENDCHAR
STARTCHAR 0024
ENCODING 36
SWIDTH 540 0
DWIDTH 9 0
BBX 8 16 0 -3
BITMAP
08
3C
4A
48
48
28
18
0C
0B
09
89
49
3E
08
08
08
ENDCHAR
STARTCHAR 0025
ENCODING 37
SWIDTH 780 0
DWIDTH 13 0
BBX 12 12 0 0
BITMAP
7FE0
8C40
8480
8500
8500
7A00
05E0
0A10
0A10
1210
2210
41E0
ENDCHAR
STARTCHAR 0026
ENCODING 38
SWIDTH 780 0
DWIDTH 13 0
BBX 11 12 2 0
BITMAP
3C00
4200
4200
4400
2800
1800
2400
4280
8100
8280
8440
7820
ENDCHAR
STARTCHAR 0027
ENCODING 39
SWIDTH 180 0
DWIDTH 3 0
BBX 1 4 1 9
BITMAP
80
80
80
80
ENDCHAR
STARTCHAR 0028
ENCODING 40
SWIDTH 420 0
DWIDTH 7 0
BBX 3 16 2 -3
BITMAP
20
40
40
40
80
80
80
80
80
80
80
80
40
40
40
20
ENDCHAR
STARTCHAR 0029
ENCODING 41
SWIDTH 300 0
DWIDTH 5 0
BBX 2 16 1 -3
BITMAP
80
80
40
40
40
40
40
40
40
40
40
40
40
40
80
80
ENDCHAR
STARTCHAR 002A
ENCODING 42
SWIDTH 360 0
DWIDTH 6 0
BBX 5 6 0 7
BITMAP
20
A8
70
70
A8
20
ENDCHAR
STARTCHAR 002B
ENCODING 43
SWIDTH 660 0
DWIDTH 11 0
BBX 9 9 1 2
BITMAP
0800
0800
0800
0800
FF80
0800
0800
0800
0800
ENDCHAR
STARTCHAR 002C
ENCODING 44
SWIDTH 300 0
DWIDTH 5 0
BBX 3 4 1 -2
BITMAP
60
40
40
80
ENDCHAR
STARTCHAR 002D
ENCODING 45
SWIDTH 360 0
DWIDTH 6 0
BBX 5 1 0 4
BITMAP
F8
ENDCHAR
STARTCHAR 002E
ENCODING 46
SWIDTH 300 0
DWIDTH 5 0
BBX 2 2 2 0
BITMAP
C0
C0
ENDCHAR
STARTCHAR 002F
ENCODING 47
SWIDTH 420 0
DWIDTH 7 0
BBX 6 15 1 -2
BITMAP
04
08
08
08
10
10
10
20
20
20
40
40
40
80
80
ENDCHAR
STARTCHAR 0030
ENCODING 48
SWIDTH 540 0
DWIDTH 9 0
BBX 8 12 0 0
BITMAP
18
24
42
81
81
81
81
81
81
42
24
18
ENDCHAR
STARTCHAR 0031
ENCODING 49
SWIDTH 540 0
DWIDTH 9 0
BBX 3 12 2 0
BITMAP
E0
20
20
20
20
20
20
20
20
20
20
20
ENDCHAR
STARTCHAR 0032
ENCODING 50
SWIDTH 540 0
DWIDTH 9 0
BBX 8 12 0 0
BITMAP
3C
42
81
81
01
02
04
08
10
20
60
FF
ENDCHAR
STARTCHAR 0033
ENCODING 51
SWIDTH 540 0
DWIDTH 9 0
BBX 8 12 0 0
BITMAP
38
44
82
02
02
1C
02
01
01
81
82
7C
ENDCHAR
STARTCHAR 0034
ENCODING 52
SWIDTH 540 0
DWIDTH 9 0
BBX 8 12 0 0
BITMAP
02
02
06
0A
12
12
22
42
FF
02
02
02
ENDCHAR
STARTCHAR 0035
ENCODING 53
SWIDTH 540 0
DWIDTH 9 0
BBX 8 12 0 0
BITMAP
3F
20
20
40
7C
42
01
01
01
81
42
3C
ENDCHAR
STARTCHAR 0036
ENCODING 54
SWIDTH 540 0
DWIDTH 9 0
BBX 7 12 1 0
BITMAP
04
08
10
20
20
78
84
82
82
82
44
38
ENDCHAR
STARTCHAR 0037
ENCODING 55
SWIDTH 540 0
DWIDTH 9 0
BBX 7 12 1 0
BITMAP
FE
04
04
08
08
10
10
20
20
40
40
80
ENDCHAR
STARTCHAR 0038
ENCODING 56
SWIDTH 540 0
DWIDTH 9 0
BBX 8 12 0 0
BITMAP
18
24
42
42
24
3C
42
81
81
81
42
3C
ENDCHAR
STARTCHAR 0039
ENCODING 57
SWIDTH 540 0
DWIDTH 9 0
BBX 7 12 1 0
BITMAP
38
44
82
82
82
44
3C
08
10
10
20
40
ENDCHAR
STARTCHAR 003A
ENCODING 58
SWIDTH 300 0
DWIDTH 5 0
BBX 2 9 2 0
BITMAP
C0
C0
00
00
00
00
00
C0
C0
ENDCHAR
STARTCHAR 003B
ENCODING 59
SWIDTH 300 0
DWIDTH 5 0
BBX 3 11 1 -2
BITMAP
60
60
00
00
00
00
00
60
40
40
80
ENDCHAR
STARTCHAR 003C
ENCODING 60
SWIDTH 600 0
DWIDTH 10 0
BBX 8 9 1 2
BITMAP
01
06
18
20
C0
20
18
06
01
ENDCHAR
STARTCHAR 003D
ENCODING 61
SWIDTH 600 0
DWIDTH 10 0
BBX 8 5 1 4
BITMAP
FF
00
00
00
FF
ENDCHAR
STARTCHAR 003E
ENCODING 62
SWIDTH 600 0
DWIDTH 10 0
BBX 8 9 1 2
BITMAP
80
60
18
04
03
04
18
60
80
ENDCHAR
STARTCHAR 003F
ENCODING 63
SWIDTH 600 0
DWIDTH 10 0
BBX 7 13 1 0
BITMAP
7C
82
82
02
04
38
40
42
42
3C
00
18
18
ENDCHAR
STARTCHAR 0040
ENCODING 64
SWIDTH 900 0
DWIDTH 15 0
BBX 13 13 1 0
BITMAP
0F80
1040
2020
4010
8748
8888
9088
9088
9090
4F60
2008
1010
0FE0
ENDCHAR
STARTCHAR 0041
ENCODING 65
SWIDTH 780 0
DWIDTH 13 0
BBX 11 12 1 0
BITMAP
0400
0A00
0A00
0A00
1100
1100
2080
3F80
4040
4040
4040
8020
ENDCHAR
STARTCHAR 0042
ENCODING 66
SWIDTH 600 0
DWIDTH 10 0
BBX 7 12 2 0
BITMAP
F0
88
84
84
88
F8
84
82
82
82
84
F8
ENDCHAR
STARTCHAR 0043
ENCODING 67
SWIDTH 840 0
DWIDTH 14 0
BBX 12 12 1 0
BITMAP
1F80
2060
4010
8000
8000
8000
8000
8000
8000
4010
2060
1F80
ENDCHAR
STARTCHAR 0044
ENCODING 68
SWIDTH 780 0
DWIDTH 13 0
BBX 10 12 2 0
BITMAP
FE00
8100
8080
8040
8040
8040
8040
8040
8040
8080
8100
FE00
ENDCHAR
STARTCHAR 0045
ENCODING 69
SWIDTH 540 0
DWIDTH 9 0
BBX 6 12 2 0
BITMAP
FC
80
80
80
80
FC
80
80
80
80
80
FC
ENDCHAR
STARTCHAR 0046
ENCODING 70
SWIDTH 480 0
DWIDTH 8 0
BBX 5 12 2 0
BITMAP
F8
80
80
80
80
F8
80
80
80
80
80
80
ENDCHAR
STARTCHAR 0047
ENCODING 71
SWIDTH 900 0
DWIDTH 15 0
BBX 13 12 1 0
BITMAP
1F80
2060
4010
8000
8000
8000
80F8
8008
8008
4010
2020
1FC0
ENDCHAR
STARTCHAR 0048
ENCODING 72
SWIDTH 720 0
DWIDTH 12 0
BBX 8 12 2 0
BITMAP
81
81
81
81
81
FF
81
81
81
81
81
81
ENDCHAR
STARTCHAR 0049
ENCODING 73
SWIDTH 300 0
DWIDTH 5 0
BBX 1 12 2 0
BITMAP
80
80
80
80
80
80
80
80
80
80
80
80
ENDCHAR
STARTCHAR 004A
ENCODING 74
SWIDTH 480 0
DWIDTH 8 0
BBX 5 12 1 0
BITMAP
08
08
08
08
08
08
08
08
08
08
90
60
ENDCHAR
STARTCHAR 004B
ENCODING 75
SWIDTH 600 0
DWIDTH 10 0
BBX 7 12 2 0
BITMAP
84
88
90
90
A0
C0
C0
A0
90
88
84
82
ENDCHAR
STARTCHAR 004C
ENCODING 76
SWIDTH 480 0
DWIDTH 8 0
BBX 6 12 2 0
BITMAP
80
80
80
80
80
80
80
80
80
80
80
FC
ENDCHAR
STARTCHAR 004D
ENCODING 77
SWIDTH 1020 0
DWIDTH 17 0
BBX 15 12 1 0
BITMAP
2008
2008
5014
5014
4824
4824
4844
4444
4444
8282
8282
8102
ENDCHAR
STARTCHAR 004E
ENCODING 78
SWIDTH 780 0
DWIDTH 13 0
BBX 9 12 2 0
BITMAP
8080
8080
C080
A080
9080
8880
8880
8480
8280
8180
8080
8080
ENDCHAR
STARTCHAR 004F
ENCODING 79
SWIDTH 900 0
DWIDTH 15 0
BBX 13 12 1 0
BITMAP
1FC0
2020
4010
8008
8008
8008
8008
8008
8008
4010
2020
1FC0
ENDCHAR
STARTCHAR 0050
ENCODING 80
SWIDTH 600 0
DWIDTH 10 0
BBX 7 12 2 0
BITMAP
F8
84
82
82
84
F8
80
80
80
80
80
80
ENDCHAR
STARTCHAR 0051
ENCODING 81
SWIDTH 900 0
DWIDTH 15 0
BBX 13 13 1 -1
BITMAP
1FC0
2020
4010
8008
8008
8008
8008
8108
8090
4050
2060
1F90
0008
ENDCHAR
STARTCHAR 0052
ENCODING 82
SWIDTH 600 0
DWIDTH 10 0
BBX 7 12 2 0
BITMAP
F8
84
82
82
84
F8
A0
90
88
88
84
82
ENDCHAR
STARTCHAR 0053
ENCODING 83
SWIDTH 480 0
DWIDTH 8 0
BBX 7 12 0 0
BITMAP
18
24
42
40
20
18
04
02
02
82
44
38
ENDCHAR
STARTCHAR 0054
ENCODING 84
SWIDTH 480 0
DWIDTH 8 0
BBX 7 12 0 0
BITMAP
FE
10
10
10
10
10
10
10
10
10
10
10
ENDCHAR
STARTCHAR 0055
ENCODING 85
SWIDTH 720 0
DWIDTH 12 0
BBX 8 12 2 0
BITMAP
81
81
81
81
81
81
81
81
81
81
42
3C
ENDCHAR
STARTCHAR 0056
ENCODING 86
SWIDTH 780 0
DWIDTH 13 0
BBX 11 12 1 0
BITMAP
8020
4040
4040
4040
2080
2080
1100
1100
0A00
0A00
0A00
0400
ENDCHAR
STARTCHAR 0057
ENCODING 87
SWIDTH 1020 0
DWIDTH 17 0
BBX 15 12 1 0
BITMAP
8102
8302
4284
4284
4444
4444
2448
2828
2828
2828
1010
1010
ENDCHAR
STARTCHAR 0058
ENCODING 88
SWIDTH 600 0
DWIDTH 10 0
BBX 9 12 0 0
BITMAP
8080
4100
4100
2200
1400
0800
0800
1400
2200
4100
4100
8080
ENDCHAR
STARTCHAR 0059
ENCODING 89
SWIDTH 660 0
DWIDTH 11 0
BBX 9 12 1 0
BITMAP
8080
4100
2200
2200
1400
0800
0800
0800
0800
0800
0800
0800
ENDCHAR
STARTCHAR 005A
ENCODING 90
SWIDTH 480 0
DWIDTH 8 0
BBX 6 12 1 0
BITMAP
FC
08
08
08
10
10
20
20
40
40
40
FC
ENDCHAR
STARTCHAR 005B
ENCODING 91
SWIDTH 360 0
DWIDTH 6 0
BBX 3 16 2 -3
BITMAP
E0
80
80
80
80
80
80
80
80
80
80
80
80
80
80
E0
ENDCHAR
STARTCHAR 005C
ENCODING 92
SWIDTH 600 0
DWIDTH 10 0
BBX 9 15 0 -2
BITMAP
8000
4000
4000
2000
2000
1000
1000
0800
0400
0400
0200
0200
0100
0100
0080
ENDCHAR
STARTCHAR 005D
ENCODING 93
SWIDTH 360 0
DWIDTH 6 0
BBX 3 16 1 -3
BITMAP
E0
20
20
20
20
20
20
20
20
20
20
20
20
20
20
E0
ENDCHAR
STARTCHAR 005E
ENCODING 94
SWIDTH 660 0
DWIDTH 11 0
BBX 9 9 1 3
BITMAP
0800
1400
1400
2200
2200
2200
4100
4100
8080
ENDCHAR
STARTCHAR 005F
ENCODING 95
SWIDTH 540 0
DWIDTH 9 0
BBX 9 1 0 -2
BITMAP
FF80
ENDCHAR
STARTCHAR 0060
ENCODING 96
SWIDTH 360 0
DWIDTH 6 0
BBX 4 3 1 11
BITMAP
C0
60
30
ENDCHAR
STARTCHAR 0061
ENCODING 97
SWIDTH 720 0
DWIDTH 12 0
BBX 10 9 1 0
BITMAP
3F40
40C0
8040
8040
8040
8040
8040
40C0
3F40
ENDCHAR
STARTCHAR 0062
ENCODING 98
SWIDTH 720 0
DWIDTH 12 0
BBX 10 13 1 0
BITMAP
8000
8000
8000
8000
BF00
C080
8040
8040
8040
8040
8040
C080
BF00
ENDCHAR
STARTCHAR 0063
ENCODING 99
SWIDTH 660 0
DWIDTH 11 0
BBX 9 9 1 0
BITMAP
3E00
4100
8080
8000
8000
8000
8080
4100
3E00
ENDCHAR
STARTCHAR 0064
ENCODING 100
SWIDTH 720 0
DWIDTH 12 0
BBX 10 13 1 0
BITMAP
0040
0040
0040
0040
3F40
40C0
8040
8040
8040
8040
8040
40C0
3F40
ENDCHAR
STARTCHAR 0065
ENCODING 101
SWIDTH 660 0
DWIDTH 11 0
BBX 9 9 1 0
BITMAP
3E00
4100
8080
8080
FF80
8000
8080
4100
3E00
ENDCHAR
STARTCHAR 0066
ENCODING 102
SWIDTH 300 0
DWIDTH 5 0
BBX 4 13 1 0
BITMAP
30
40
40
40
F0
40
40
40
40
40
40
40
40
ENDCHAR
STARTCHAR 0067
ENCODING 103
SWIDTH 660 0
DWIDTH 11 0
BBX 9 12 1 -3
BITMAP
3E80
4180
8080
8080
8080
8080
8080
4180
3E80
8080
4100
3E00
ENDCHAR
STARTCHAR 0068
ENCODING 104
SWIDTH 600 0
DWIDTH 10 0
BBX 8 13 1 0
BITMAP
80
80
80
80
BC
C2
81
81
81
81
81
81
81
ENDCHAR
STARTCHAR 0069
ENCODING 105
SWIDTH 180 0
DWIDTH 3 0
BBX 1 13 1 0
BITMAP
80
80
00
00
80
80
80
80
80
80
80
80
80
ENDCHAR
STARTCHAR 006A
ENCODING 106
SWIDTH 180 0
DWIDTH 3 0
BBX 3 16 -1 -3
BITMAP
20
20
00
00
20
20
20
20
20
20
20
20
20
20
20
C0
ENDCHAR
STARTCHAR 006B
ENCODING 107
SWIDTH 540 0
DWIDTH 9 0
BBX 7 13 1 0
BITMAP
80
80
80
80
82
8C
90
A0
E0
90
88
84
82
ENDCHAR
STARTCHAR 006C
ENCODING 108
SWIDTH 180 0
DWIDTH 3 0
BBX 1 13 1 0
BITMAP
80
80
80
80
80
80
80
80
80
80
80
80
80
ENDCHAR
STARTCHAR 006D
ENCODING 109
SWIDTH 900 0
DWIDTH 15 0
BBX 13 9 1 0
BITMAP
B8E0
C510
8208
8208
8208
8208
8208
8208
8208
ENDCHAR
STARTCHAR 006E
ENCODING 110
SWIDTH 600 0
DWIDTH 10 0
BBX 8 9 1 0
BITMAP
BC
C2
81
81
81
81
81
81
81
ENDCHAR
STARTCHAR 006F
ENCODING 111
SWIDTH 660 0
DWIDTH 11 0
BBX 9 9 1 0
BITMAP
3E00
4100
8080
8080
8080
8080
8080
4100
3E00
ENDCHAR
STARTCHAR 0070
ENCODING 112
SWIDTH 720 0
DWIDTH 12 0
BBX 10 12 1 -3
BITMAP
BF00
C080
8040
8040
8040
8040
8040
C080
BF00
8000
8000
8000
ENDCHAR
STARTCHAR 0071
ENCODING 113
SWIDTH 720 0
DWIDTH 12 0
BBX 10 12 1 -3
BITMAP
3F40
40C0
8040
8040
8040
8040
8040
40C0
3F40
0040
0040
0040
ENDCHAR
STARTCHAR 0072
ENCODING 114
SWIDTH 300 0
DWIDTH 5 0
BBX 4 9 1 0
BITMAP
B0
C0
80
80
80
80
80
80
80
ENDCHAR
STARTCHAR 0073
ENCODING 115
SWIDTH 420 0
DWIDTH 7 0
BBX 6 9 0 0
BITMAP
78
84
80
40
30
08
04
84
78
ENDCHAR
STARTCHAR 0074
ENCODING 116
SWIDTH 420 0
DWIDTH 7 0
BBX 5 13 1 0
BITMAP
20
20
20
20
F8
20
20
20
20
20
20
20
20
ENDCHAR
STARTCHAR 0075
ENCODING 117
SWIDTH 600 0
DWIDTH 10 0
BBX 8 9 1 0
BITMAP
81
81
81
81
81
81
81
42
3C
ENDCHAR
STARTCHAR 0076
ENCODING 118
SWIDTH 660 0
DWIDTH 11 0
BBX 9 9 1 0
BITMAP
8080
4100
4100
2200
2200
2200
1400
1400
0800
ENDCHAR
STARTCHAR 0077
ENCODING 119
SWIDTH 840 0
DWIDTH 14 0
BBX 13 9 0 0
BITMAP
8208
4210
4510
4510
2920
28A0
28A0
1040
1040
ENDCHAR
STARTCHAR 0078
ENCODING 120
SWIDTH 480 0
DWIDTH 8 0
BBX 8 9 0 0
BITMAP
81
42
24
18
18
18
24
42
81
ENDCHAR
STARTCHAR 0079
ENCODING 121
SWIDTH 480 0
DWIDTH 8 0
BBX 8 12 0 -3
BITMAP
81
42
42
42
24
24
18
18
10
10
10
20
ENDCHAR
STARTCHAR 007A
ENCODING 122
SWIDTH 420 0
DWIDTH 7 0
BBX 7 9 0 0
BITMAP
FE
04
08
08
10
20
20
40
FE
ENDCHAR
STARTCHAR 007B
ENCODING 123
SWIDTH 420 0
DWIDTH 7 0
BBX 5 16 1 -3
BITMAP
18
20
20
20
20
20
20
40
80
60
20
20
20
20
20
18
ENDCHAR
STARTCHAR 007C
ENCODING 124
SWIDTH 660 0
DWIDTH 11 0
BBX 1 16 5 -3
BITMAP
80
80
80
80
80
80
80
80
80
80
80
80
80
80
80
80
ENDCHAR
STARTCHAR 007D
ENCODING 125
SWIDTH 360 0
DWIDTH 6 0
BBX 5 16 0 -3
BITMAP
C0
20
20
20
20
20
20
10
08
30
20
20
20
20
20
C0
ENDCHAR
STARTCHAR 007E
ENCODING 126
SWIDTH 600 0
DWIDTH 10 0
BBX 8 2 1 5
BITMAP
71
8E
ENDCHAR
STARTCHAR 00A0
ENCODING 160
SWIDTH 300 0
DWIDTH 5 0
BBX 1 1 0 0
BITMAP
00
ENDCHAR
STARTCHAR 00A1
ENCODING 161
SWIDTH 240 0
DWIDTH 4 0
BBX 1 12 1 -3
BITMAP
80
80
00
80
80
80
80
80
80
80
80
80
ENDCHAR
STARTCHAR 00A2
ENCODING 162
SWIDTH 540 0
DWIDTH 9 0
BBX 7 13 1 -2
BITMAP
02
06
3C
4E
88
90
90
A0
A0
42
7C
C0
80
ENDCHAR
STARTCHAR 00A3
ENCODING 163
SWIDTH 540 0
DWIDTH 9 0
BBX 8 12 0 0
BITMAP
3C
42
42
40
20
FC
10
10
10
71
B9
E6
ENDCHAR
STARTCHAR 00A4
ENCODING 164
SWIDTH 540 0
DWIDTH 9 0
BBX 8 9 0 0
BITMAP
BD
42
C3
81
81
81
C3
42
BD
ENDCHAR
STARTCHAR 00A5
ENCODING 165
SWIDTH 480 0
DWIDTH 8 0
BBX 7 12 0 0
BITMAP
82
44
44
28
28
10
7C
10
7C
10
10
10
ENDCHAR
STARTCHAR 00A6
ENCODING 166
SWIDTH 660 0
DWIDTH 11 0
BBX 1 16 5 -3
BITMAP
80
80
80
80
80
80
80
00
80
80
80
80
80
80
80
80
ENDCHAR
STARTCHAR 00A7
ENCODING 167
SWIDTH 600 0
DWIDTH 10 0
BBX 7 16 1 -3
BITMAP
7C
86
82
80
60
78
84
82
82
66
1C
0C
02
02
82
7C
ENDCHAR
STARTCHAR 00A8
ENCODING 168
SWIDTH 360 0
DWIDTH 6 0
BBX 5 2 0 11
BITMAP
D8
D8
ENDCHAR
STARTCHAR 00A9
ENCODING 169
SWIDTH 780 0
DWIDTH 13 0
BBX 13 13 0 0
BITMAP
0F80
1040
2020
4F90
9048
9008
9008
9048
9088
4F10
2020
1040
0F80
ENDCHAR
STARTCHAR 00AA
ENCODING 170
SWIDTH 360 0
DWIDTH 6 0
BBX 5 5 0 7
BITMAP
78
88
88
88
78
ENDCHAR
STARTCHAR 00AB
ENCODING 171
SWIDTH 420 0
DWIDTH 7 0
BBX 7 9 0 0
BITMAP
22
44
44
88
88
88
44
44
22
ENDCHAR
STARTCHAR 00AC
ENCODING 172
SWIDTH 600 0
DWIDTH 10 0
BBX 8 5 1 4
BITMAP
FF
01
01
01
01
ENDCHAR
STARTCHAR 00AD
ENCODING 173
SWIDTH 360 0
DWIDTH 6 0
BBX 5 1 0 4
BITMAP
F8
ENDCHAR
STARTCHAR 00AE
ENCODING 174
SWIDTH 780 0
DWIDTH 13 0
BBX 13 13 0 0
BITMAP
1FC0
2020
4010
8E08
8908
8908
8F08
8888
8888
8808
4010
2020
1FC0
ENDCHAR
STARTCHAR 00AF
ENCODING 175
SWIDTH 540 0
DWIDTH 9 0
BBX 11 1 -1 13
BITMAP
FFE0
ENDCHAR
STARTCHAR 00B0
ENCODING 176
SWIDTH 420 0
DWIDTH 7 0
BBX 6 6 0 6
BITMAP
78
84
84
84
84
78
ENDCHAR
STARTCHAR 00B1
ENCODING 177
SWIDTH 600 0
DWIDTH 10 0
BBX 9 11 0 0
BITMAP
0800
0800
0800
0800
FF80
0800
0800
0800
0800
0000
FF80
ENDCHAR
STARTCHAR 00B2
ENCODING 178
SWIDTH 360 0
DWIDTH 6 0
BBX 5 6 0 6
BITMAP
70
88
08
10
20
78
ENDCHAR
STARTCHAR 00B3
ENCODING 179
SWIDTH 360 0
DWIDTH 6 0
BBX 5 6 0 6
BITMAP
70
88
30
08
88
70
ENDCHAR
STARTCHAR 00B4
ENCODING 180
SWIDTH 360 0
DWIDTH 6 0
BBX 4 3 2 11
BITMAP
30
60
C0
ENDCHAR
STARTCHAR 00B5
ENCODING 181
SWIDTH 600 0
DWIDTH 10 0
BBX 8 12 1 -3
BITMAP
81
81
81
81
81
81
81
C3
BD
80
80
80
ENDCHAR
STARTCHAR 00B6
ENCODING 182
SWIDTH 600 0
DWIDTH 10 0
BBX 8 15 1 -2
BITMAP
7F
72
F2
F2
F2
F2
72
12
12
12
12
12
12
12
12
ENDCHAR
STARTCHAR 00B7
ENCODING 183
SWIDTH 360 0
DWIDTH 6 0
BBX 2 2 4 5
BITMAP
C0
C0
ENDCHAR
STARTCHAR 00B8
ENCODING 184
SWIDTH 300 0
DWIDTH 5 0
BBX 3 4 1 -4
BITMAP
40
60
20
C0
ENDCHAR
STARTCHAR 00B9
ENCODING 185
SWIDTH 360 0
DWIDTH 6 0
BBX 2 6 1 6
BITMAP
C0
40
40
40
40
40
ENDCHAR
STARTCHAR 00BA
ENCODING 186
SWIDTH 360 0
DWIDTH 6 0
BBX 5 5 0 7
BITMAP
70
88
88
88
70
ENDCHAR
STARTCHAR 00BB
ENCODING 187
SWIDTH 420 0
DWIDTH 7 0
BBX 7 9 0 0
BITMAP
88
44
44
22
22
22
44
44
88
ENDCHAR
STARTCHAR 00BC
ENCODING 188
SWIDTH 840 0
DWIDTH 14 0
BBX 13 13 1 0
BITMAP
0020
C040
4080
4080
4100
4100
4200
0410
0430
0850
0890
11F8
2010
ENDCHAR
STARTCHAR 00BD
ENCODING 189
SWIDTH 840 0
DWIDTH 14 0
BBX 12 13 1 0
BITMAP
0040
C080
4100
4100
4200
4200
4400
08E0
0910
1010
1020
2040
40F0
ENDCHAR
STARTCHAR 00BE
ENCODING 190
SWIDTH 840 0
DWIDTH 14 0
BBX 14 13 0 0
BITMAP
0010
7020
8840
3040
0880
8880
7100
0208
0218
0428
0448
08FC
1008
ENDCHAR
STARTCHAR 00BF
ENCODING 191
SWIDTH 600 0
DWIDTH 10 0
BBX 7 12 2 -3
BITMAP
30
30
00
78
84
84
18
60
80
82
82
7C
ENDCHAR
STARTCHAR 00C0
ENCODING 192
SWIDTH 780 0
DWIDTH 13 0
BBX 11 16 1 0
BITMAP
1800
0C00
0600
0000
0400
0A00
0A00
0A00
1100
1100
2080
3F80
4040
4040
4040
8020
ENDCHAR
STARTCHAR 00C1
ENCODING 193
SWIDTH 780 0
DWIDTH 13 0
BBX 11 16 1 0
BITMAP
0300
0600
0C00
0000
0400
0A00
0A00
0A00
1100
1100
2080
3F80
4040
4040
4040
8020
ENDCHAR
STARTCHAR 00C2
ENCODING 194
SWIDTH 780 0
DWIDTH 13 0
BBX 11 16 1 0
BITMAP
0C00
1200
2100
0000
0400
0A00
0A00
0A00
1100
1100
2080
3F80
4040
4040
4040
8020
ENDCHAR
STARTCHAR 00C3
ENCODING 195
SWIDTH 780 0
DWIDTH 13 0
BBX 11 15 1 0
BITMAP
0C80
1300
0000
0400
0A00
0A00
0A00
1100
1100
2080
3F80
4040
4040
4040
8020
ENDCHAR
STARTCHAR 00C4
ENCODING 196
SWIDTH 780 0
DWIDTH 13 0
BBX 11 15 1 0
BITMAP
1B00
1B00
0000
0400
0A00
0A00
0A00
1100
1100
2080
3F80
4040
4040
4040
8020
ENDCHAR
STARTCHAR 00C5
ENCODING 197
SWIDTH 780 0
DWIDTH 13 0
BBX 11 17 1 0
BITMAP
0600
0900
0900
0600
0000
0400
0A00
0A00
0A00
1100
1100
2080
3F80
4040
4040
4040
8020
ENDCHAR
STARTCHAR 00C6
ENCODING 198
SWIDTH 1020 0
DWIDTH 17 0
BBX 15 12 0 0
BITMAP
01FE
0180
0280
0480
0480
08FE
0880
1F80
2080
2080
4080
80FE
ENDCHAR
STARTCHAR 00C7
ENCODING 199
SWIDTH 840 0
DWIDTH 14 0
BBX 12 16 1 -4
BITMAP
1F80
2060
4010
8000
8000
8000
8000
8000
8000
4010
2060
1F80
0200
0300
0100
0600
ENDCHAR
STARTCHAR 00C8
ENCODING 200
SWIDTH 540 0
DWIDTH 9 0
BBX 6 16 2 0
BITMAP
C0
60
30
00
FC
80
80
80
80
FC
80
80
80
80
80
FC
ENDCHAR
STARTCHAR 00C9
ENCODING 201
SWIDTH 540 0
DWIDTH 9 0
BBX 6 16 2 0
BITMAP
0C
18
30
00
FC
80
80
80
80
FC
80
80
80
80
80
FC
ENDCHAR
STARTCHAR 00CA
ENCODING 202
SWIDTH 540 0
DWIDTH 9 0
BBX 6 16 2 0
BITMAP
30
48
84
00
FC
80
80
80
80
FC
80
80
80
80
80
FC
ENDCHAR
STARTCHAR 00CB
ENCODING 203
SWIDTH 540 0
DWIDTH 9 0
BBX 6 15 2 0
BITMAP
6C
6C
00
FC
80
80
80
80
FC
80
80
80
80
80
FC
ENDCHAR
STARTCHAR 00CC
ENCODING 204
SWIDTH 300 0
DWIDTH 5 0
BBX 4 16 -1 0
BITMAP
C0
60
30
00
10
10
10
10
10
10
10
10
10
10
10
10
ENDCHAR
STARTCHAR 00CD
ENCODING 205
SWIDTH 300 0
DWIDTH 5 0
BBX 4 16 2 0
BITMAP
30
60
C0
00
80
80
80
80
80
80
80
80
80
80
80
80
ENDCHAR
STARTCHAR 00CE
ENCODING 206
SWIDTH 300 0
DWIDTH 5 0
BBX 6 16 0 0
BITMAP
30
48
84
00
20
20
20
20
20
20
20
20
20
20
20
20
ENDCHAR
STARTCHAR 00CF
ENCODING 207
SWIDTH 300 0
DWIDTH 5 0
BBX 5 15 0 0
BITMAP
D8
D8
00
20
20
20
20
20
20
20
20
20
20
20
20
ENDCHAR
STARTCHAR 00D0
ENCODING 208
SWIDTH 780 0
DWIDTH 13 0
BBX 11 12 1 0
BITMAP
7F00
4080
4040
4020
4020
4020
F820
4020
4020
4040
4080
7F00
ENDCHAR
STARTCHAR 00D1
ENCODING 209
SWIDTH 780 0
DWIDTH 13 0
BBX 9 15 2 0
BITMAP
1900
2600
0000
8080
8080
C080
A080
9080
8880
8880
8480
8280
8180
8080
8080
ENDCHAR
STARTCHAR 00D2
ENCODING 210
SWIDTH 900 0
DWIDTH 15 0
BBX 13 16 1 0
BITMAP
0C00
0600
0300
0000
1FC0
2020
4010
8008
8008
8008
8008
8008
8008
4010
2020
1FC0
ENDCHAR
STARTCHAR 00D3
ENCODING 211
SWIDTH 900 0
DWIDTH 15 0
BBX 13 16 1 0
BITMAP
0180
0300
0600
0000
1FC0
2020
4010
8008
8008
8008
8008
8008
8008
4010
2020
1FC0
ENDCHAR
STARTCHAR 00D4
ENCODING 212
SWIDTH 900 0
DWIDTH 15 0
BBX 13 16 1 0
BITMAP
0600
0900
1080
0000
1FC0
2020
4010
8008
8008
8008
8008
8008
8008
4010
2020
1FC0
ENDCHAR
STARTCHAR 00D5
ENCODING 213
SWIDTH 900 0
DWIDTH 15 0
BBX 13 15 1 0
BITMAP
0640
0980
0000
1FC0
2020
4010
8008
8008
8008
8008
8008
8008
4010
2020
1FC0
ENDCHAR
STARTCHAR 00D6
ENCODING 214
SWIDTH 900 0
DWIDTH 15 0
BBX 13 15 1 0
BITMAP
0D80
0D80
0000
1FC0
2020
4010
8008
8008
8008
8008
8008
8008
4010
2020
1FC0
ENDCHAR
STARTCHAR 00D7
ENCODING 215
SWIDTH 540 0
DWIDTH 9 0
BBX 6 6 1 3
BITMAP
84
48
30
30
48
84
ENDCHAR
STARTCHAR 00D8
ENCODING 216
SWIDTH 900 0
DWIDTH 15 0
BBX 13 12 1 0
BITMAP
1F98
2070
4030
8050
8188
8208
8408
8808
5008
6010
3020
CFC0
ENDCHAR
STARTCHAR 00D9
ENCODING 217
SWIDTH 720 0
DWIDTH 12 0
BBX 8 16 2 0
BITMAP
60
30
18
00
81
81
81
81
81
81
81
81
81
81
42
3C
ENDCHAR
STARTCHAR 00DA
ENCODING 218
SWIDTH 720 0
DWIDTH 12 0
BBX 8 16 2 0
BITMAP
06
0C
18
00
81
81
81
81
81
81
81
81
81
81
42
3C
ENDCHAR
STARTCHAR 00DB
ENCODING 219
SWIDTH 720 0
DWIDTH 12 0
BBX 8 16 2 0
BITMAP
18
24
42
00
81
81
81
81
81
81
81
81
81
81
42
3C
ENDCHAR
STARTCHAR 00DC
ENCODING 220
SWIDTH 720 0
DWIDTH 12 0
BBX 8 15 2 0
BITMAP
6C
6C
00
81
81
81
81
81
81
81
81
81
81
42
3C
ENDCHAR
STARTCHAR 00DD
ENCODING 221
SWIDTH 660 0
DWIDTH 11 0
BBX 9 16 1 0
BITMAP
0600
0C00
1800
0000
8080
4100
2200
2200
1400
0800
0800
0800
0800
0800
0800
0800
ENDCHAR
STARTCHAR 00DE
ENCODING 222
SWIDTH 600 0
DWIDTH 10 0
BBX 7 12 2 0
BITMAP
80
80
80
F8
84
82
82
84
F8
80
80
80
ENDCHAR
STARTCHAR 00DF
ENCODING 223
SWIDTH 540 0
DWIDTH 9 0
BBX 7 13 1 0
BITMAP
7C
82
82
82
82
9C
8C
82
82
82
82
82
BC
ENDCHAR
STARTCHAR 00E0
ENCODING 224
SWIDTH 720 0
DWIDTH 12 0
BBX 10 13 1 0
BITMAP
3000
1800
0C00
0000
3F40
40C0
8040
8040
8040
8040
8040
40C0
3F40
ENDCHAR
STARTCHAR 00E1
ENCODING 225
SWIDTH 720 0
DWIDTH 12 0
BBX 10 13 1 0
BITMAP
0300
0600
0C00
0000
3F40
40C0
8040
8040
8040
8040
8040
40C0
3F40
ENDCHAR
STARTCHAR 00E2
ENCODING 226
SWIDTH 720 0
DWIDTH 12 0
BBX 10 13 1 0
BITMAP
0C00
1200
2100
0000
3F40
40C0
8040
8040
8040
8040
8040
40C0
3F40
ENDCHAR
STARTCHAR 00E3
ENCODING 227
SWIDTH 720 0
DWIDTH 12 0
BBX 10 12 1 0
BITMAP
1900
2600
0000
3F40
40C0
8040
8040
8040
8040
8040
40C0
3F40
ENDCHAR
STARTCHAR 00E4
ENCODING 228
SWIDTH 720 0
DWIDTH 12 0
BBX 10 12 1 0
BITMAP
1B00
1B00
0000
3F40
40C0
8040
8040
8040
8040
8040
40C0
3F40
ENDCHAR
STARTCHAR 00E5
ENCODING 229
SWIDTH 720 0
DWIDTH 12 0
BBX 10 14 1 0
BITMAP
0C00
1200
1200
0C00
0000
3F40
40C0
8040
8040
8040
8040
8040
40C0
3F40
ENDCHAR
STARTCHAR 00E6
ENCODING 230
SWIDTH 1200 0
DWIDTH 20 0
BBX 18 9 1 0
BITMAP
3EBE00
41C180
808080
808040
80FFC0
808000
808040
41C080
3EBF00
ENDCHAR
STARTCHAR 00E7
ENCODING 231
SWIDTH 660 0
DWIDTH 11 0
BBX 9 13 1 -4
BITMAP
3E00
4100
8080
8000
8000
8000
8080
4100
3E00
0800
0C00
0400
1800
ENDCHAR
STARTCHAR 00E8
ENCODING 232
SWIDTH 660 0
DWIDTH 11 0
BBX 9 13 1 0
BITMAP
3000
1800
0C00
0000
3E00
4100
8080
8080
FF80
8000
8080
4100
3E00
ENDCHAR
STARTCHAR 00E9
ENCODING 233
SWIDTH 660 0
DWIDTH 11 0
BBX 9 13 1 0
BITMAP
0600
0C00
1800
0000
3E00
4100
8080
8080
FF80
8000
8080
4100
3E00
ENDCHAR
STARTCHAR 00EA
ENCODING 234
SWIDTH 660 0
DWIDTH 11 0
BBX 9 13 1 0
BITMAP
1800
2400
4200
0000
3E00
4100
8080
8080
FF80
8000
8080
4100
3E00
ENDCHAR
STARTCHAR 00EB
ENCODING 235
SWIDTH 660 0
DWIDTH 11 0
BBX 9 12 1 0
BITMAP
3600
3600
0000
3E00
4100
8080
8080
FF80
8000
8080
4100
3E00
ENDCHAR
STARTCHAR 00EC
ENCODING 236
SWIDTH 180 0
DWIDTH 3 0
BBX 4 13 -2 0
BITMAP
C0
60
30
00
10
10
10
10
10
10
10
10
10
ENDCHAR
STARTCHAR 00ED
ENCODING 237
SWIDTH 180 0
DWIDTH 3 0
BBX 4 13 1 0
BITMAP
30
60
C0
00
80
80
80
80
80
80
80
80
80
ENDCHAR
STARTCHAR 00EE
ENCODING 238
SWIDTH 180 0
DWIDTH 3 0
BBX 6 13 -1 0
BITMAP
30
48
84
00
20
20
20
20
20
20
20
20
20
ENDCHAR
STARTCHAR 00EF
ENCODING 239
SWIDTH 180 0
DWIDTH 3 0
BBX 5 12 -1 0
BITMAP
D8
D8
00
20
20
20
20
20
20
20
20
20
ENDCHAR
STARTCHAR 00F0
ENCODING 240
SWIDTH 660 0
DWIDTH 11 0
BBX 9 13 1 0
BITMAP
0900
0600
1A00
0200
3F00
4300
8180
8080
8080
8080
8080
4100
3E00
ENDCHAR
STARTCHAR 00F1
ENCODING 241
SWIDTH 600 0
DWIDTH 10 0
BBX 8 12 1 0
BITMAP
32
4C
00
BC
C2
81
81
81
81
81
81
81
ENDCHAR
STARTCHAR 00F2
ENCODING 242
SWIDTH 660 0
DWIDTH 11 0
BBX 9 13 1 0
BITMAP
3000
1800
0C00
0000
3E00
4100
8080
8080
8080
8080
8080
4100
3E00
ENDCHAR
STARTCHAR 00F3
ENCODING 243
SWIDTH 660 0
DWIDTH 11 0
BBX 9 13 1 0
BITMAP
0600
0C00
1800
0000
3E00
4100
8080
8080
8080
8080
8080
4100
3E00
ENDCHAR
STARTCHAR 00F4
ENCODING 244
SWIDTH 660 0
DWIDTH 11 0
BBX 9 13 1 0
BITMAP
1800
2400
4200
0000
3E00
4100
8080
8080
8080
8080
8080
4100
3E00
ENDCHAR
STARTCHAR 00F5
ENCODING 245
SWIDTH 660 0
DWIDTH 11 0
BBX 9 12 1 0
BITMAP
1900
2600
0000
3E00
4100
8080
8080
8080
8080
8080
4100
3E00
ENDCHAR
STARTCHAR 00F6
ENCODING 246
SWIDTH 660 0
DWIDTH 11 0
BBX 9 12 1 0
BITMAP
3600
3600
0000
3E00
4100
8080
8080
8080
8080
8080
4100
3E00
ENDCHAR
STARTCHAR 00F7
ENCODING 247
SWIDTH 540 0
DWIDTH 9 0
BBX 8 7 0 3
BITMAP
18
18
00
FF
00
18
18
ENDCHAR
STARTCHAR 00F8
ENCODING 248
SWIDTH 660 0
DWIDTH 11 0
BBX 9 9 1 0
BITMAP
3C80
4300
8300
8480
8880
9080
6080
6100
9E00
ENDCHAR
STARTCHAR 00F9
ENCODING 249
SWIDTH 600 0
DWIDTH 10 0
BBX 8 13 1 0
BITMAP
60
30
18
00
81
81
81
81
81
81
81
42
3C
ENDCHAR
STARTCHAR 00FA
ENCODING 250
SWIDTH 600 0
DWIDTH 10 0
BBX 8 13 1 0
BITMAP
06
0C
18
00
81
81
81
81
81
81
81
42
3C
ENDCHAR
STARTCHAR 00FB
ENCODING 251
SWIDTH 600 0
DWIDTH 10 0
BBX 8 13 1 0
BITMAP
18
24
42
00
81
81
81
81
81
81
81
42
3C
ENDCHAR
STARTCHAR 00FC
ENCODING 252
SWIDTH 600 0
DWIDTH 10 0
BBX 8 12 1 0
BITMAP
36
36
00
81
81
81
81
81
81
81
42
3C
ENDCHAR
STARTCHAR 00FD
ENCODING 253
SWIDTH 480 0
DWIDTH 8 0
BBX 8 16 0 -3
BITMAP
06
0C
18
00
81
42
42
42
24
24
18
18
10
10
10
20
ENDCHAR
STARTCHAR 00FE
ENCODING 254
SWIDTH 720 0
DWIDTH 12 0
BBX 10 16 1 -3
BITMAP
8000
8000
8000
8000
BF00
C080
8040
8040
8040
8040
8040
C080
BF00
8000
8000
8000
ENDCHAR
STARTCHAR 00FF
ENCODING 255
SWIDTH 480 0
DWIDTH 8 0
BBX 8 15 0 -3
BITMAP
6C
6C
00
81
42
42
42
24
24
18
18
10
10
10
20
ENDCHAR
STARTCHAR 0100
ENCODING 256
SWIDTH 780 0
DWIDTH 13 0
BBX 11 14 1 0
BITMAP
1F00
0000
0400
0A00
0A00
0A00
1100
1100
2080
3F80
4040
4040
4040
8020
ENDCHAR
STARTCHAR 0101
ENCODING 257
SWIDTH 720 0
DWIDTH 12 0
BBX 10 11 1 0
BITMAP
1F00
0000
3F40
40C0
8040
8040
8040
8040
8040
40C0
3F40
ENDCHAR
STARTCHAR 0102
ENCODING 258
SWIDTH 780 0
DWIDTH 13 0
BBX 11 15 1 0
BITMAP
2100
1E00
0000
0400
0A00
0A00
0A00
1100
1100
2080
3F80
4040
4040
4040
8020
ENDCHAR
STARTCHAR 0103
ENCODING 259
SWIDTH 720 0
DWIDTH 12 0
BBX 10 12 1 0
BITMAP
2100
1E00
0000
3F40
40C0
8040
8040
8040
8040
8040
40C0
3F40
ENDCHAR
STARTCHAR 0104
ENCODING 260
SWIDTH 780 0
DWIDTH 13 0
BBX 12 15 1 -3
BITMAP
0400
0A00
0A00
0A00
1100
1100
2080
3F80
4040
4040
4040
8020
0040
0040
0030
ENDCHAR
STARTCHAR 0105
ENCODING 261
SWIDTH 720 0
DWIDTH 12 0
BBX 11 12 1 -3
BITMAP
3F40
40C0
8040
8040
8040
8040
8040
40C0
3F40
0080
0080
0060
ENDCHAR
STARTCHAR 0106
ENCODING 262
SWIDTH 840 0
DWIDTH 14 0
BBX 12 16 1 0
BITMAP
0180
0300
0600
0000
1F80
2060
4010
8000
8000
8000
8000
8000
8000
4010
2060
1F80
ENDCHAR
STARTCHAR 0107
ENCODING 263
SWIDTH 660 0
DWIDTH 11 0
BBX 9 13 1 0
BITMAP
0600
0C00
1800
0000
3E00
4100
8080
8000
8000
8000
8080
4100
3E00
ENDCHAR
STARTCHAR 0108
ENCODING 264
SWIDTH 840 0
DWIDTH 14 0
BBX 12 16 1 0
BITMAP
0300
0480
0840
0000
1F80
2060
4010
8000
8000
8000
8000
8000
8000
4010
2060
1F80
ENDCHAR
STARTCHAR 0109
ENCODING 265
SWIDTH 660 0
DWIDTH 11 0
BBX 9 13 1 0
BITMAP
0C00
1200
2100
0000
3E00
4100
8080
8000
8000
8000
8080
4100
3E00
ENDCHAR
STARTCHAR 010A
ENCODING 266
SWIDTH 840 0
DWIDTH 14 0
BBX 12 15 1 0
BITMAP
0600
0600
0000
1F80
2060
4010
8000
8000
8000
8000
8000
8000
4010
2060
1F80
ENDCHAR
STARTCHAR 010B
ENCODING 267
SWIDTH 660 0
DWIDTH 11 0
BBX 9 12 1 0
BITMAP
1800
1800
0000
3E00
4100
8080
8000
8000
8000
8080
4100
3E00
ENDCHAR
STARTCHAR 010C
ENCODING 268
SWIDTH 840 0
DWIDTH 14 0
BBX 12 16 1 0
BITMAP
1080
0900
0600
0000
1F80
2060
4010
8000
8000
8000
8000
8000
8000
4010
2060
1F80
ENDCHAR
STARTCHAR 010D
ENCODING 269
SWIDTH 660 0
DWIDTH 11 0
BBX 9 13 1 0
BITMAP
4200
2400
1800
0000
3E00
4100
8080
8000
8000
8000
8080
4100
3E00
ENDCHAR
STARTCHAR 010E
ENCODING 270
SWIDTH 780 0
DWIDTH 13 0
BBX 10 16 2 0
BITMAP
4200
2400
1800
0000
FE00
8100
8080
8040
8040
8040
8040
8040
8040
8080
8100
FE00
ENDCHAR
STARTCHAR 010F
ENCODING 271
SWIDTH 720 0
DWIDTH 12 0
BBX 12 13 1 0
BITMAP
0050
0050
0050
0050
1E40
6140
40C0
8040
8040
8040
40C0
6140
1E40
ENDCHAR
STARTCHAR 0110
ENCODING 272
SWIDTH 780 0
DWIDTH 13 0
BBX 11 12 1 0
BITMAP
7F00
4080
4040
4020
4020
4020
F820
4020
4020
4040
4080
7F00
ENDCHAR
STARTCHAR 0111
ENCODING 273
SWIDTH 720 0
DWIDTH 12 0
BBX 11 13 1 0
BITMAP
0040
0040
03E0
0040
3F40
40C0
8040
8040
8040
8040
8040
40C0
3F40
ENDCHAR
STARTCHAR 0112
ENCODING 274
SWIDTH 540 0
DWIDTH 9 0
BBX 6 14 2 0
BITMAP
7C
00
FC
80
80
80
80
FC
80
80
80
80
80
FC
ENDCHAR
STARTCHAR 0113
ENCODING 275
SWIDTH 660 0
DWIDTH 11 0
BBX 9 12 1 0
BITMAP
3E00
0000
0000
3E00
4100
8080
8080
FF80
8000
8080
4100
3E00
ENDCHAR
STARTCHAR 0114
ENCODING 276
SWIDTH 540 0
DWIDTH 9 0
BBX 6 15 2 0
BITMAP
84
78
00
FC
80
80
80
80
FC
80
80
80
80
80
FC
ENDCHAR
STARTCHAR 0115
ENCODING 277
SWIDTH 660 0
DWIDTH 11 0
BBX 9 12 1 0
BITMAP
4200
3C00
0000
3E00
4100
8080
8080
FF80
8000
8080
4100
3E00
ENDCHAR
STARTCHAR 0116
ENCODING 278
SWIDTH 540 0
DWIDTH 9 0
BBX 6 15 2 0
BITMAP
30
30
00
FC
80
80
80
80
FC
80
80
80
80
80
FC
ENDCHAR
STARTCHAR 0117
ENCODING 279
SWIDTH 660 0
DWIDTH 11 0
BBX 9 12 1 0
BITMAP
1800
1800
0000
3E00
4100
8080
8080
FF80
8000
8080
4100
3E00
ENDCHAR
STARTCHAR 0118
ENCODING 280
SWIDTH 540 0
DWIDTH 9 0
BBX 6 15 2 -3
BITMAP
FC
80
80
80
80
FC
80
80
80
80
80
FC
20
20
18
ENDCHAR
STARTCHAR 0119
ENCODING 281
SWIDTH 660 0
DWIDTH 11 0
BBX 9 12 1 -3
BITMAP
3E00
4100
8080
8080
FF80
8000
8080
4100
3E00
0800
0800
0600
ENDCHAR
STARTCHAR 011A
ENCODING 282
SWIDTH 540 0
DWIDTH 9 0
BBX 6 16 2 0
BITMAP
84
48
30
00
FC
80
80
80
80
FC
80
80
80
80
80
FC
ENDCHAR
STARTCHAR 011B
ENCODING 283
SWIDTH 660 0
DWIDTH 11 0
BBX 9 13 1 0
BITMAP
4200
2400
1800
0000
3E00
4100
8080
8080
FF80
8000
8080
4100
3E00
ENDCHAR
STARTCHAR 011C
ENCODING 284
SWIDTH 900 0
DWIDTH 15 0
BBX 13 16 1 0
BITMAP
0300
0480
0840
0000
1F80
2060
4010
8000
8000
8000
80F8
8008
8008
4010
2020
1FC0
ENDCHAR
STARTCHAR 011D
ENCODING 285
SWIDTH 660 0
DWIDTH 11 0
BBX 9 16 1 -3
BITMAP
0C00
1200
2100
0000
3E80
4180
8080
8080
8080
8080
8080
4180
3E80
8080
4100
3E00
ENDCHAR
STARTCHAR 011E
ENCODING 286
SWIDTH 900 0
DWIDTH 15 0
BBX 13 15 1 0
BITMAP
1080
0F00
0000
1F80
2060
4010
8000
8000
8000
80F8
8008
8008
4010
2020
1FC0
ENDCHAR
STARTCHAR 011F
ENCODING 287
SWIDTH 660 0
DWIDTH 11 0
BBX 9 15 1 -3
BITMAP
4200
3C00
0000
3E80
4180
8080
8080
8080
8080
8080
4180
3E80
8080
4100
3E00
ENDCHAR
STARTCHAR 0120
ENCODING 288
SWIDTH 900 0
DWIDTH 15 0
BBX 13 15 1 0
BITMAP
0600
0600
0000
1F80
2060
4010
8000
8000
8000
80F8
8008
8008
4010
2020
1FC0
ENDCHAR
STARTCHAR 0121
ENCODING 289
SWIDTH 660 0
DWIDTH 11 0
BBX 9 15 1 -3
BITMAP
1800
1800
0000
3E80
4180
8080
8080
8080
8080
8080
4180
3E80
8080
4100
3E00
ENDCHAR
STARTCHAR 0122
ENCODING 290
SWIDTH 900 0
DWIDTH 15 0
BBX 13 16 1 -4
BITMAP
1F80
2060
4010
8000
8000
8000
80F8
8008
8008
4010
2020
1FC0
0200
0300
0100
0600
ENDCHAR
STARTCHAR 0123
ENCODING 291
SWIDTH 660 0
DWIDTH 11 0
BBX 9 17 1 -3
BITMAP
0800
1000
1800
1800
0000
3E80
4180
8080
8080
8080
8080
8080
4180
3E80
8080
4100
3E00
ENDCHAR
STARTCHAR 0124
ENCODING 292
SWIDTH 720 0
DWIDTH 12 0
BBX 8 16 2 0
BITMAP
18
24
42
00
81
81
81
81
81
FF
81
81
81
81
81
81
ENDCHAR
STARTCHAR 0125
ENCODING 293
SWIDTH 600 0
DWIDTH 10 0
BBX 8 16 1 0
BITMAP
18
24
42
80
80
80
80
BC
C2
81
81
81
81
81
81
81
ENDCHAR
STARTCHAR 0126
ENCODING 294
SWIDTH 720 0
DWIDTH 12 0
BBX 10 12 1 0
BITMAP
4080
4080
FFC0
4080
4080
7F80
4080
4080
4080
4080
4080
4080
ENDCHAR
STARTCHAR 0127
ENCODING 295
SWIDTH 600 0
DWIDTH 10 0
BBX 9 13 0 0
BITMAP
4000
4000
F800
4000
5E00
6100
4080
4080
4080
4080
4080
4080
4080
ENDCHAR
STARTCHAR 0128
ENCODING 296
SWIDTH 300 0
DWIDTH 5 0
BBX 6 15 -1 0
BITMAP
64
98
00
10
10
10
10
10
10
10
10
10
10
10
10
ENDCHAR
STARTCHAR 0129
ENCODING 297
SWIDTH 180 0
DWIDTH 3 0
BBX 6 12 -1 0
BITMAP
64
98
00
20
20
20
20
20
20
20
20
20
ENDCHAR
STARTCHAR 012A
ENCODING 298
SWIDTH 300 0
DWIDTH 5 0
BBX 5 14 0 0
BITMAP
F8
00
20
20
20
20
20
20
20
20
20
20
20
20
ENDCHAR
STARTCHAR 012B
ENCODING 299
SWIDTH 180 0
DWIDTH 3 0
BBX 5 12 -1 0
BITMAP
F8
00
00
20
20
20
20
20
20
20
20
20
ENDCHAR
STARTCHAR 012C
ENCODING 300
SWIDTH 300 0
DWIDTH 5 0
BBX 6 15 0 0
BITMAP
84
78
00
20
20
20
20
20
20
20
20
20
20
20
20
ENDCHAR
STARTCHAR 012D
ENCODING 301
SWIDTH 180 0
DWIDTH 3 0
BBX 6 12 -2 0
BITMAP
84
78
00
10
10
10
10
10
10
10
10
10
ENDCHAR
STARTCHAR 012E
ENCODING 302
SWIDTH 300 0
DWIDTH 5 0
BBX 3 15 1 -3
BITMAP
40
40
40
40
40
40
40
40
40
40
40
40
80
80
60
ENDCHAR
STARTCHAR 012F
ENCODING 303
SWIDTH 180 0
DWIDTH 3 0
BBX 3 16 0 -3
BITMAP
40
40
00
00
40
40
40
40
40
40
40
40
40
80
80
60
ENDCHAR
STARTCHAR 0130
ENCODING 304
SWIDTH 300 0
DWIDTH 5 0
BBX 2 15 2 0
BITMAP
C0
C0
00
80
80
80
80
80
80
80
80
80
80
80
80
ENDCHAR
STARTCHAR 0131
ENCODING 305
SWIDTH 180 0
DWIDTH 3 0
BBX 1 9 1 0
BITMAP
80
80
80
80
80
80
80
80
80
ENDCHAR
STARTCHAR 0132
ENCODING 306
SWIDTH 720 0
DWIDTH 12 0
BBX 8 12 2 0
BITMAP
81
81
81
81
81
81
81
81
81
81
92
8C
ENDCHAR
STARTCHAR 0133
ENCODING 307
SWIDTH 420 0
DWIDTH 7 0
BBX 5 16 1 -3
BITMAP
88
88
00
00
88
88
88
88
88
88
88
88
88
08
08
30
ENDCHAR
STARTCHAR 0134
ENCODING 308
SWIDTH 480 0
DWIDTH 8 0
BBX 6 16 1 0
BITMAP
30
48
84
00
08
08
08
08
08
08
08
08
08
08
90
60
ENDCHAR
STARTCHAR 0135
ENCODING 309
SWIDTH 180 0
DWIDTH 3 0
BBX 6 17 -1 -3
BITMAP
30
48
84
00
00
20
20
20
20
20
20
20
20
20
20
20
E0
ENDCHAR
STARTCHAR 0136
ENCODING 310
SWIDTH 600 0
DWIDTH 10 0
BBX 7 15 2 -3
BITMAP
84
88
90
90
A0
C0
C0
A0
90
88
84
82
30
10
60
ENDCHAR
STARTCHAR 0137
ENCODING 311
SWIDTH 540 0
DWIDTH 9 0
BBX 7 16 1 -3
BITMAP
80
80
80
80
82
8C
90
A0
E0
90
88
84
82
30
10
60
ENDCHAR
STARTCHAR 0138
ENCODING 312
SWIDTH 540 0
DWIDTH 9 0
BBX 7 9 1 0
BITMAP
82
8C
90
E0
E0
90
88
84
82
ENDCHAR
STARTCHAR 0139
ENCODING 313
SWIDTH 480 0
DWIDTH 8 0
BBX 6 16 2 0
BITMAP
18
30
60
00
80
80
80
80
80
80
80
80
80
80
80
FC
ENDCHAR
STARTCHAR 013A
ENCODING 314
SWIDTH 180 0
DWIDTH 3 0
BBX 4 16 0 0
BITMAP
30
60
C0
40
40
40
40
40
40
40
40
40
40
40
40
40
ENDCHAR
STARTCHAR 013B
ENCODING 315
SWIDTH 480 0
DWIDTH 8 0
BBX 6 15 2 -3
BITMAP
80
80
80
80
80
80
80
80
80
80
80
FC
30
10
60
ENDCHAR
STARTCHAR 013C
ENCODING 316
SWIDTH 180 0
DWIDTH 3 0
BBX 2 14 0 -1
BITMAP
40
40
40
40
40
40
40
40
40
40
40
40
40
C0
ENDCHAR
STARTCHAR 013D
ENCODING 317
SWIDTH 480 0
DWIDTH 8 0
BBX 6 12 2 0
BITMAP
B0
B0
90
A0
80
80
80
80
80
80
80
FC
ENDCHAR
STARTCHAR 013E
ENCODING 318
SWIDTH 240 0
DWIDTH 4 0
BBX 3 13 1 0
BITMAP
A0
A0
A0
A0
80
80
80
80
80
80
80
80
80
ENDCHAR
STARTCHAR 013F
ENCODING 319
SWIDTH 480 0
DWIDTH 8 0
BBX 6 12 2 0
BITMAP
80
80
80
80
80
B0
B0
80
80
80
80
FC
ENDCHAR
STARTCHAR 0140
ENCODING 320
SWIDTH 240 0
DWIDTH 4 0
BBX 4 13 1 0
BITMAP
80
80
80
80
80
80
B0
B0
80
80
80
80
80
ENDCHAR
STARTCHAR 0141
ENCODING 321
SWIDTH 540 0
DWIDTH 9 0
BBX 8 12 1 0
BITMAP
20
20
20
24
28
30
60
A0
20
20
20
3F
ENDCHAR
STARTCHAR 0142
ENCODING 322
SWIDTH 360 0
DWIDTH 6 0
BBX 5 13 0 0
BITMAP
20
20
20
20
28
30
60
A0
20
20
20
20
20
ENDCHAR
STARTCHAR 0143
ENCODING 323
SWIDTH 780 0
DWIDTH 13 0
BBX 9 16 2 0
BITMAP
0C00
1800
3000
0000
8080
8080
C080
A080
9080
8880
8880
8480
8280
8180
8080
8080
ENDCHAR
STARTCHAR 0144
ENCODING 324
SWIDTH 600 0
DWIDTH 10 0
BBX 8 13 1 0
BITMAP
0C
18
30
00
BC
C2
81
81
81
81
81
81
81
ENDCHAR
STARTCHAR 0145
ENCODING 325
SWIDTH 780 0
DWIDTH 13 0
BBX 9 15 2 -3
BITMAP
8080
8080
C080
A080
9080
8880
8880
8480
8280
8180
8080
8080
0C00
0400
1800
ENDCHAR
STARTCHAR 0146
ENCODING 326
SWIDTH 600 0
DWIDTH 10 0
BBX 8 12 1 -3
BITMAP
BC
C2
81
81
81
81
81
81
81
18
08
30
ENDCHAR
STARTCHAR 0147
ENCODING 327
SWIDTH 780 0
DWIDTH 13 0
BBX 9 16 2 0
BITMAP
4200
2400
1800
0000
8080
8080
C080
A080
9080
8880
8880
8480
8280
8180
8080
8080
ENDCHAR
STARTCHAR 0148
ENCODING 328
SWIDTH 600 0
DWIDTH 10 0
BBX 8 13 1 0
BITMAP
42
24
18
00
BC
C2
81
81
81
81
81
81
81
ENDCHAR
STARTCHAR 0149
ENCODING 329
SWIDTH 600 0
DWIDTH 10 0
BBX 10 13 -1 0
BITMAP
C000
C000
4000
8000
2F00
3080
2040
2040
2040
2040
2040
2040
2040
ENDCHAR
STARTCHAR 014A
ENCODING 330
SWIDTH 780 0
DWIDTH 13 0
BBX 10 12 2 0
BITMAP
9E00
E100
8080
8040
8040
8040
8040
8040
8040
8080
9100
8E00
ENDCHAR
STARTCHAR 014B
ENCODING 331
SWIDTH 600 0
DWIDTH 10 0
BBX 8 12 1 -3
BITMAP
BC
C2
81
81
81
81
81
81
81
01
01
06
ENDCHAR
STARTCHAR 014C
ENCODING 332
SWIDTH 900 0
DWIDTH 15 0
BBX 13 14 1 0
BITMAP
0F80
0000
1FC0
2020
4010
8008
8008
8008
8008
8008
8008
4010
2020
1FC0
ENDCHAR
STARTCHAR 014D
ENCODING 333
SWIDTH 660 0
DWIDTH 11 0
BBX 9 12 1 0
BITMAP
3E00
0000
0000
3E00
4100
8080
8080
8080
8080
8080
4100
3E00
ENDCHAR
STARTCHAR 014E
ENCODING 334
SWIDTH 900 0
DWIDTH 15 0
BBX 13 15 1 0
BITMAP
1080
0F00
0000
1FC0
2020
4010
8008
8008
8008
8008
8008
8008
4010
2020
1FC0
ENDCHAR
STARTCHAR 014F
ENCODING 335
SWIDTH 660 0
DWIDTH 11 0
BBX 9 12 1 0
BITMAP
4200
3C00
0000
3E00
4100
8080
8080
8080
8080
8080
4100
3E00
ENDCHAR
STARTCHAR 0150
ENCODING 336
SWIDTH 900 0
DWIDTH 15 0
BBX 13 16 1 0
BITMAP
0360
06C0
0D80
0000
1FC0
2020
4010
8008
8008
8008
8008
8008
8008
4010
2020
1FC0
ENDCHAR
STARTCHAR 0151
ENCODING 337
SWIDTH 660 0
DWIDTH 11 0
BBX 9 13 1 0
BITMAP
0D80
1B00
3600
0000
3E00
4100
8080
8080
8080
8080
8080
4100
3E00
ENDCHAR
STARTCHAR 0152
ENCODING 338
SWIDTH 1200 0
DWIDTH 20 0
BBX 18 12 1 0
BITMAP
1F9FC0
205000
403000
801000
801000
801FC0
801000
801000
801000
403000
205000
1F9FC0
ENDCHAR
STARTCHAR 0153
ENCODING 339
SWIDTH 1140 0
DWIDTH 19 0
BBX 17 9 1 0
BITMAP
3E3C00
41C200
808100
808080
80FF80
808000
808080
41C100
3E3E00
ENDCHAR
STARTCHAR 0154
ENCODING 340
SWIDTH 600 0
DWIDTH 10 0
BBX 7 16 2 0
BITMAP
18
30
60
00
F8
84
82
82
84
F8
A0
90
88
88
84
82
ENDCHAR
STARTCHAR 0155
ENCODING 341
SWIDTH 300 0
DWIDTH 5 0
BBX 4 13 1 0
BITMAP
30
60
C0
00
B0
C0
80
80
80
80
80
80
80
ENDCHAR
STARTCHAR 0156
ENCODING 342
SWIDTH 600 0
DWIDTH 10 0
BBX 7 15 2 -3
BITMAP
F8
84
82
82
84
F8
A0
90
88
88
84
82
30
10
60
ENDCHAR
STARTCHAR 0157
ENCODING 343
SWIDTH 300 0
DWIDTH 5 0
BBX 4 12 1 -3
BITMAP
B0
C0
80
80
80
80
80
80
80
60
20
C0
ENDCHAR
STARTCHAR 0158
ENCODING 344
SWIDTH 600 0
DWIDTH 10 0
BBX 7 16 2 0
BITMAP
84
48
30
00
F8
84
82
82
84
F8
A0
90
88
88
84
82
ENDCHAR
STARTCHAR 0159
ENCODING 345
SWIDTH 300 0
DWIDTH 5 0
BBX 6 14 -1 0
BITMAP
84
48
30
00
00
2C
30
20
20
20
20
20
20
20
ENDCHAR
STARTCHAR 015A
ENCODING 346
SWIDTH 480 0
DWIDTH 8 0
BBX 7 16 0 0
BITMAP
06
0C
18
00
18
24
42
40
20
18
04
02
02
82
44
38
ENDCHAR
STARTCHAR 015B
ENCODING 347
SWIDTH 420 0
DWIDTH 7 0
BBX 6 13 0 0
BITMAP
18
30
60
00
78
84
80
40
30
08
04
84
78
ENDCHAR
STARTCHAR 015C
ENCODING 348
SWIDTH 480 0
DWIDTH 8 0
BBX 7 16 0 0
BITMAP
18
24
42
00
18
24
42
40
20
18
04
02
02
82
44
38
ENDCHAR
STARTCHAR 015D
ENCODING 349
SWIDTH 420 0
DWIDTH 7 0
BBX 6 13 0 0
BITMAP
30
48
84
00
78
84
80
40
30
08
04
84
78
ENDCHAR
STARTCHAR 015E
ENCODING 350
SWIDTH 480 0
DWIDTH 8 0
BBX 7 16 0 -4
BITMAP
18
24
42
40
20
18
04
02
02
82
44
38
10
18
08
30
ENDCHAR
STARTCHAR 015F
ENCODING 351
SWIDTH 420 0
DWIDTH 7 0
BBX 6 13 0 -4
BITMAP
78
84
80
40
30
08
04
84
78
10
18
08
30
ENDCHAR
STARTCHAR 0160
ENCODING 352
SWIDTH 480 0
DWIDTH 8 0
BBX 7 16 0 0
BITMAP
84
48
30
00
18
24
42
40
20
18
04
02
02
82
44
38
ENDCHAR
STARTCHAR 0161
ENCODING 353
SWIDTH 420 0
DWIDTH 7 0
BBX 6 13 0 0
BITMAP
84
48
30
00
78
84
80
40
30
08
04
84
78
ENDCHAR
STARTCHAR 0162
ENCODING 354
SWIDTH 480 0
DWIDTH 8 0
BBX 7 15 0 -3
BITMAP
FE
10
10
10
10
10
10
10
10
10
10
10
00
10
10
ENDCHAR
STARTCHAR 0163
ENCODING 355
SWIDTH 420 0
DWIDTH 7 0
BBX 5 16 1 -3
BITMAP
20
20
20
20
F8
20
20
20
20
20
20
20
20
00
20
20
ENDCHAR
STARTCHAR 0164
ENCODING 356
SWIDTH 480 0
DWIDTH 8 0
BBX 7 16 0 0
BITMAP
84
48
30
00
FE
10
10
10
10
10
10
10
10
10
10
10
ENDCHAR
STARTCHAR 0165
ENCODING 357
SWIDTH 420 0
DWIDTH 7 0
BBX 5 13 1 0
BITMAP
28
28
20
20
F8
20
20
20
20
20
20
20
20
ENDCHAR
STARTCHAR 0166
ENCODING 358
SWIDTH 420 0
DWIDTH 7 0
BBX 7 12 0 0
BITMAP
FE
10
10
10
10
10
FE
10
10
10
10
10
ENDCHAR
STARTCHAR 0167
ENCODING 359
SWIDTH 360 0
DWIDTH 6 0
BBX 5 13 0 0
BITMAP
20
20
20
20
F8
20
20
20
F8
20
20
20
20
ENDCHAR
STARTCHAR 0168
ENCODING 360
SWIDTH 720 0
DWIDTH 12 0
BBX 8 15 2 0
BITMAP
32
4C
00
81
81
81
81
81
81
81
81
81
81
42
3C
ENDCHAR
STARTCHAR 0169
ENCODING 361
SWIDTH 600 0
DWIDTH 10 0
BBX 8 12 1 0
BITMAP
32
4C
00
81
81
81
81
81
81
81
42
3C
ENDCHAR
STARTCHAR 016A
ENCODING 362
SWIDTH 720 0
DWIDTH 12 0
BBX 8 14 2 0
BITMAP
7C
00
81
81
81
81
81
81
81
81
81
81
42
3C
ENDCHAR
STARTCHAR 016B
ENCODING 363
SWIDTH 600 0
DWIDTH 10 0
BBX 8 12 1 0
BITMAP
3E
00
00
81
81
81
81
81
81
81
42
3C
ENDCHAR
STARTCHAR 016C
ENCODING 364
SWIDTH 720 0
DWIDTH 12 0
BBX 8 15 2 0
BITMAP
42
3C
00
81
81
81
81
81
81
81
81
81
81
42
3C
ENDCHAR
STARTCHAR 016D
ENCODING 365
SWIDTH 600 0
DWIDTH 10 0
BBX 8 12 1 0
BITMAP
42
3C
00
81
81
81
81
81
81
81
42
3C
ENDCHAR
STARTCHAR 016E
ENCODING 366
SWIDTH 720 0
DWIDTH 12 0
BBX 8 17 2 0
BITMAP
18
24
24
18
00
81
81
81
81
81
81
81
81
81
81
42
3C
ENDCHAR
STARTCHAR 016F
ENCODING 367
SWIDTH 600 0
DWIDTH 10 0
BBX 8 14 1 0
BITMAP
18
24
24
18
00
81
81
81
81
81
81
81
42
3C
ENDCHAR
STARTCHAR 0170
ENCODING 368
SWIDTH 720 0
DWIDTH 12 0
BBX 8 16 2 0
BITMAP
1B
36
6C
00
81
81
81
81
81
81
81
81
81
81
42
3C
ENDCHAR
STARTCHAR 0171
ENCODING 369
SWIDTH 600 0
DWIDTH 10 0
BBX 8 13 1 0
BITMAP
1B
36
6C
00
81
81
81
81
81
81
81
42
3C
ENDCHAR
STARTCHAR 0172
ENCODING 370
SWIDTH 720 0
DWIDTH 12 0
BBX 8 15 2 -3
BITMAP
81
81
81
81
81
81
81
81
81
81
42
3C
20
20
18
ENDCHAR
STARTCHAR 0173
ENCODING 371
SWIDTH 600 0
DWIDTH 10 0
BBX 8 12 1 -3
BITMAP
81
81
81
81
81
81
81
42
3C
20
20
18
ENDCHAR
STARTCHAR 0174
ENCODING 372
SWIDTH 1020 0
DWIDTH 17 0
BBX 15 16 1 0
BITMAP
0180
0240
0420
0000
8102
8302
4284
4284
4444
4444
2448
2828
2828
2828
1010
1010
ENDCHAR
STARTCHAR 0175
ENCODING 373
SWIDTH 840 0
DWIDTH 14 0
BBX 13 13 0 0
BITMAP
0600
0900
1080
0000
8208
4210
4510
4510
2920
28A0
28A0
1040
1040
ENDCHAR
STARTCHAR 0176
ENCODING 374
SWIDTH 660 0
DWIDTH 11 0
BBX 9 16 1 0
BITMAP
0C00
1200
2100
0000
8080
4100
2200
2200
1400
0800
0800
0800
0800
0800
0800
0800
ENDCHAR
STARTCHAR 0177
ENCODING 375
SWIDTH 480 0
DWIDTH 8 0
BBX 8 16 0 -3
BITMAP
18
24
42
00
81
42
42
42
24
24
18
18
10
10
10
20
ENDCHAR
STARTCHAR 0178
ENCODING 376
SWIDTH 660 0
DWIDTH 11 0
BBX 9 15 1 0
BITMAP
3600
3600
0000
8080
4100
2200
2200
1400
0800
0800
0800
0800
0800
0800
0800
ENDCHAR
STARTCHAR 0179
ENCODING 377
SWIDTH 480 0
DWIDTH 8 0
BBX 6 16 1 0
BITMAP
18
30
60
00
FC
08
08
08
10
10
20
20
40
40
40
FC
ENDCHAR
STARTCHAR 017A
ENCODING 378
SWIDTH 420 0
DWIDTH 7 0
BBX 7 13 0 0
BITMAP
0C
18
30
00
FE
04
08
08
10
20
20
40
FE
ENDCHAR
STARTCHAR 017B
ENCODING 379
SWIDTH 480 0
DWIDTH 8 0
BBX 6 15 1 0
BITMAP
30
30
00
FC
08
08
08
10
10
20
20
40
40
40
FC
ENDCHAR
STARTCHAR 017C
ENCODING 380
SWIDTH 420 0
DWIDTH 7 0
BBX 7 12 0 0
BITMAP
18
18
00
FE
04
08
08
10
20
20
40
FE
ENDCHAR
STARTCHAR 017D
ENCODING 381
SWIDTH 480 0
DWIDTH 8 0
BBX 6 16 1 0
BITMAP
84
48
30
00
FC
08
08
08
10
10
20
20
40
40
40
FC
ENDCHAR
STARTCHAR 017E
ENCODING 382
SWIDTH 420 0
DWIDTH 7 0
BBX 7 13 0 0
BITMAP
84
48
30
00
FE
04
08
08
10
20
20
40
FE
ENDCHAR
STARTCHAR 017F
ENCODING 383
SWIDTH 180 0
DWIDTH 3 0
BBX 3 13 1 0
BITMAP
60
80
80
80
80
80
80
80
80
80
80
80
80
ENDCHAR
STARTCHAR 0192
ENCODING 402
SWIDTH 540 0
DWIDTH 9 0
BBX 7 16 0 -3
BITMAP
06
08
08
08
08
1E
08
08
10
10
10
10
10
10
20
E0
ENDCHAR
STARTCHAR 01FA
ENCODING 506
SWIDTH 780 0
DWIDTH 13 0
BBX 11 21 1 0
BITMAP
0300
0600
0C00
0000
0000
0C00
1200
1200
0C00
0400
0A00
0A00
0A00
1100
1100
2080
3F80
4040
4040
4040
8020
ENDCHAR
STARTCHAR 01FB
ENCODING 507
SWIDTH 720 0
DWIDTH 12 0
BBX 10 20 1 0
BITMAP
0600
0C00
1800
0000
0000
0C00
1200
1200
0C00
0000
0000
3F40
40C0
8040
8040
8040
8040
8040
40C0
3F40
ENDCHAR
STARTCHAR 01FC
ENCODING 508
SWIDTH 1020 0
DWIDTH 17 0
BBX 15 16 0 0
BITMAP
0030
0060
00C0
0000
01FE
0180
0280
0480
0480
08FE
0880
1F80
2080
2080
4080
80FE
ENDCHAR
STARTCHAR 01FD
ENCODING 509
SWIDTH 1200 0
DWIDTH 20 0
BBX 18 13 1 0
BITMAP
006000
00C000
018000
000000
3EBE00
41C180
808080
808040
80FFC0
808000
808040
41C080
3EBF00
ENDCHAR
STARTCHAR 01FE
ENCODING 510
SWIDTH 900 0
DWIDTH 15 0
BBX 13 16 1 0
BITMAP
0180
0300
0600
0000
1F98
2070
4030
8050
8188
8208
8408
8808
5008
6010
3020
CFC0
ENDCHAR
STARTCHAR 01FF
ENCODING 511
SWIDTH 660 0
DWIDTH 11 0
BBX 9 13 1 0
BITMAP
0600
0C00
1800
0000
3C80
4300
8300
8480
8880
9080
6080
6100
9E00
ENDCHAR
STARTCHAR 02C6
ENCODING 710
SWIDTH 540 0
DWIDTH 9 0
BBX 6 3 1 11
BITMAP
30
48
84
ENDCHAR
STARTCHAR 02C7
ENCODING 711
SWIDTH 540 0
DWIDTH 9 0
BBX 6 3 1 11
BITMAP
84
48
30
ENDCHAR
STARTCHAR 02C9
ENCODING 713
SWIDTH 480 0
DWIDTH 8 0
BBX 5 1 1 11
BITMAP
F8
ENDCHAR
STARTCHAR 02D8
ENCODING 728
SWIDTH 480 0
DWIDTH 8 0
BBX 6 2 1 11
BITMAP
84
78
ENDCHAR
STARTCHAR 02D9
ENCODING 729
SWIDTH 240 0
DWIDTH 4 0
BBX 2 2 1 11
BITMAP
C0
C0
ENDCHAR
STARTCHAR 02DA
ENCODING 730
SWIDTH 360 0
DWIDTH 6 0
BBX 4 4 1 10
BITMAP
60
90
90
60
ENDCHAR
STARTCHAR 02DB
ENCODING 731
SWIDTH 300 0
DWIDTH 5 0
BBX 3 3 1 -3
BITMAP
80
80
60
ENDCHAR
STARTCHAR 02DC
ENCODING 732
SWIDTH 420 0
DWIDTH 7 0
BBX 6 2 0 11
BITMAP
64
98
ENDCHAR
STARTCHAR 02DD
ENCODING 733
SWIDTH 540 0
DWIDTH 9 0
BBX 7 3 2 11
BITMAP
36
6C
D8
ENDCHAR
STARTCHAR 037E
ENCODING 894
SWIDTH 300 0
DWIDTH 5 0
BBX 3 11 1 -2
BITMAP
60
60
00
00
00
00
00
60
40
40
80
ENDCHAR
STARTCHAR 0384
ENCODING 900
SWIDTH 360 0
DWIDTH 6 0
BBX 1 3 2 10
BITMAP
80
80
80
ENDCHAR
STARTCHAR 0385
ENCODING 901
SWIDTH 360 0
DWIDTH 6 0
BBX 5 3 0 10
BITMAP
20
20
A8
ENDCHAR
STARTCHAR 0386
ENCODING 902
SWIDTH 780 0
DWIDTH 13 0
BBX 11 13 1 0
BITMAP
2000
2400
2A00
0A00
0A00
1100
1100
2080
3F80
4040
4040
4040
8020
ENDCHAR
STARTCHAR 0387
ENCODING 903
SWIDTH 300 0
DWIDTH 5 0
BBX 2 2 2 7
BITMAP
C0
C0
ENDCHAR
STARTCHAR 0388
ENCODING 904
SWIDTH 600 0
DWIDTH 10 0
BBX 10 13 -1 0
BITMAP
8000
8FC0
C800
0800
0800
0800
0FC0
0800
0800
0800
0800
0800
0FC0
ENDCHAR
STARTCHAR 0389
ENCODING 905
SWIDTH 720 0
DWIDTH 12 0
BBX 11 13 -1 0
BITMAP
8000
9020
D020
1020
1020
1020
1FE0
1020
1020
1020
1020
1020
1020
ENDCHAR
STARTCHAR 038A
ENCODING 906
SWIDTH 300 0
DWIDTH 5 0
BBX 4 13 -1 0
BITMAP
80
90
90
10
10
10
10
10
10
10
10
10
10
ENDCHAR
STARTCHAR 038C
ENCODING 908
SWIDTH 900 0
DWIDTH 15 0
BBX 15 13 -1 0
BITMAP
8000
87F0
C808
1004
2002
2002
2002
2002
2002
2002
1004
0808
07F0
ENDCHAR
STARTCHAR 038E
ENCODING 910
SWIDTH 660 0
DWIDTH 11 0
BBX 12 13 -1 0
BITMAP
8000
9010
8820
0440
0440
0280
0100
0100
0100
0100
0100
0100
0100
ENDCHAR
STARTCHAR 038F
ENCODING 911
SWIDTH 840 0
DWIDTH 14 0
BBX 14 13 -1 0
BITMAP
8000
87E0
C810
1008
2004
2004
2004
2004
2004
1008
0810
0660
3E7C
ENDCHAR
STARTCHAR 0390
ENCODING 912
SWIDTH 180 0
DWIDTH 3 0
BBX 3 13 1 0
BITMAP
80
80
A0
00
80
80
80
80
80
80
80
80
80
ENDCHAR
STARTCHAR 0391
ENCODING 913
SWIDTH 780 0
DWIDTH 13 0
BBX 11 12 1 0
BITMAP
0400
0A00
0A00
0A00
1100
1100
2080
3F80
4040
4040
4040
8020
ENDCHAR
STARTCHAR 0392
ENCODING 914
SWIDTH 600 0
DWIDTH 10 0
BBX 7 12 2 0
BITMAP
F0
88
84
84
88
F8
84
82
82
82
84
F8
ENDCHAR
STARTCHAR 0393
ENCODING 915
SWIDTH 480 0
DWIDTH 8 0
BBX 6 12 2 0
BITMAP
FC
80
80
80
80
80
80
80
80
80
80
80
ENDCHAR
STARTCHAR 0394
ENCODING 916
SWIDTH 780 0
DWIDTH 13 0
BBX 11 12 1 0
BITMAP
0400
0A00
0A00
1100
1100
1100
2080
2080
4040
4040
8020
FFE0
ENDCHAR
STARTCHAR 0395
ENCODING 917
SWIDTH 540 0
DWIDTH 9 0
BBX 6 12 2 0
BITMAP
FC
80
80
80
80
FC
80
80
80
80
80
FC
ENDCHAR
STARTCHAR 0396
ENCODING 918
SWIDTH 480 0
DWIDTH 8 0
BBX 6 12 1 0
BITMAP
FC
08
08
08
10
10
20
20
40
40
40
FC
ENDCHAR
STARTCHAR 0397
ENCODING 919
SWIDTH 720 0
DWIDTH 12 0
BBX 8 12 2 0
BITMAP
81
81
81
81
81
FF
81
81
81
81
81
81
ENDCHAR
STARTCHAR 0398
ENCODING 920
SWIDTH 900 0
DWIDTH 15 0
BBX 13 12 1 0
BITMAP
1FC0
2020
4010
8008
8008
9FC8
8008
8008
8008
4010
2020
1FC0
ENDCHAR
STARTCHAR 0399
ENCODING 921
SWIDTH 300 0
DWIDTH 5 0
BBX 1 12 2 0
BITMAP
80
80
80
80
80
80
80
80
80
80
80
80
ENDCHAR
STARTCHAR 039A
ENCODING 922
SWIDTH 600 0
DWIDTH 10 0
BBX 7 12 2 0
BITMAP
84
88
90
90
A0
C0
C0
A0
90
88
84
82
ENDCHAR
STARTCHAR 039B
ENCODING 923
SWIDTH 660 0
DWIDTH 11 0
BBX 11 12 0 0
BITMAP
0400
0A00
0A00
0A00
1100
1100
2080
2080
4040
4040
4040
8020
ENDCHAR
STARTCHAR 039C
ENCODING 924
SWIDTH 1020 0
DWIDTH 17 0
BBX 15 12 1 0
BITMAP
2008
2008
5014
5014
4824
4824
4844
4444
4444
8282
8282
8102
ENDCHAR
STARTCHAR 039D
ENCODING 925
SWIDTH 780 0
DWIDTH 13 0
BBX 9 12 2 0
BITMAP
8080
8080
C080
A080
9080
8880
8880
8480
8280
8180
8080
8080
ENDCHAR
STARTCHAR 039E
ENCODING 926
SWIDTH 540 0
DWIDTH 9 0
BBX 7 12 1 0
BITMAP
FE
00
00
00
00
FE
00
00
00
00
00
FE
ENDCHAR
STARTCHAR 039F
ENCODING 927
SWIDTH 900 0
DWIDTH 15 0
BBX 13 12 1 0
BITMAP
1FC0
2020
4010
8008
8008
8008
8008
8008
8008
4010
2020
1FC0
ENDCHAR
STARTCHAR 03A0
ENCODING 928
SWIDTH 720 0
DWIDTH 12 0
BBX 8 12 2 0
BITMAP
FF
81
81
81
81
81
81
81
81
81
81
81
ENDCHAR
STARTCHAR 03A1
ENCODING 929
SWIDTH 600 0
DWIDTH 10 0
BBX 7 12 2 0
BITMAP
F8
84
82
82
84
F8
80
80
80
80
80
80
ENDCHAR
STARTCHAR 03A3
ENCODING 931
SWIDTH 540 0
DWIDTH 9 0
BBX 7 12 1 0
BITMAP
FE
40
20
20
10
08
08
10
20
40
40
FE
ENDCHAR
STARTCHAR 03A4
ENCODING 932
SWIDTH 480 0
DWIDTH 8 0
BBX 7 12 0 0
BITMAP
FE
10
10
10
10
10
10
10
10
10
10
10
ENDCHAR
STARTCHAR 03A5
ENCODING 933
SWIDTH 660 0
DWIDTH 11 0
BBX 9 12 1 0
BITMAP
8080
4100
2200
2200
1400
0800
0800
0800
0800
0800
0800
0800
ENDCHAR
STARTCHAR 03A6
ENCODING 934
SWIDTH 900 0
DWIDTH 15 0
BBX 13 12 1 0
BITMAP
0200
1FC0
2220
4210
8208
8208
8208
8208
4210
2220
1FC0
0200
ENDCHAR
STARTCHAR 03A7
ENCODING 935
SWIDTH 600 0
DWIDTH 10 0
BBX 9 12 0 0
BITMAP
8080
4100
4100
2200
1400
0800
0800
1400
2200
4100
4100
8080
ENDCHAR
STARTCHAR 03A8
ENCODING 936
SWIDTH 780 0
DWIDTH 13 0
BBX 11 12 1 0
BITMAP
8420
8420
8420
8420
8420
8420
4440
2480
1F00
0400
0400
0400
ENDCHAR
STARTCHAR 03A9
ENCODING 937
SWIDTH 840 0
DWIDTH 14 0
BBX 12 12 1 0
BITMAP
1F80
2040
4020
8010
8010
8010
8010
8010
4020
2040
1980
F9F0
ENDCHAR
STARTCHAR 03AA
ENCODING 938
SWIDTH 300 0
DWIDTH 5 0
BBX 5 15 0 0
BITMAP
D8
D8
00
20
20
20
20
20
20
20
20
20
20
20
20
ENDCHAR
STARTCHAR 03AB
ENCODING 939
SWIDTH 660 0
DWIDTH 11 0
BBX 9 15 1 0
BITMAP
3600
3600
0000
8080
4100
2200
2200
1400
0800
0800
0800
0800
0800
0800
0800
ENDCHAR
STARTCHAR 03AC
ENCODING 940
SWIDTH 720 0
DWIDTH 12 0
BBX 10 13 1 0
BITMAP
0800
0C00
0C00
0000
3F40
40C0
8040
8040
8040
8040
8040
40C0
3F40
ENDCHAR
STARTCHAR 03AD
ENCODING 941
SWIDTH 420 0
DWIDTH 7 0
BBX 5 13 1 0
BITMAP
20
30
30
00
70
88
80
80
60
80
80
88
70
ENDCHAR
STARTCHAR 03AE
ENCODING 942
SWIDTH 600 0
DWIDTH 10 0
BBX 8 16 1 -3
BITMAP
10
18
18
00
BC
C2
81
81
81
81
81
81
81
01
01
01
ENDCHAR
STARTCHAR 03AF
ENCODING 943
SWIDTH 180 0
DWIDTH 3 0
BBX 1 13 1 0
BITMAP
80
80
80
00
80
80
80
80
80
80
80
80
80
ENDCHAR
STARTCHAR 03B0
ENCODING 944
SWIDTH 600 0
DWIDTH 10 0
BBX 8 13 1 0
BITMAP
08
08
2E
00
84
82
81
81
81
81
81
42
3C
ENDCHAR
STARTCHAR 03B1
ENCODING 945
SWIDTH 720 0
DWIDTH 12 0
BBX 10 9 1 0
BITMAP
3F40
40C0
8040
8040
8040
8040
8040
40C0
3F40
ENDCHAR
STARTCHAR 03B2
ENCODING 946
SWIDTH 600 0
DWIDTH 10 0
BBX 8 16 1 -3
BITMAP
78
84
84
84
88
BC
82
81
81
81
81
C2
BC
80
80
80
ENDCHAR
STARTCHAR 03B3
ENCODING 947
SWIDTH 540 0
DWIDTH 9 0
BBX 9 12 0 -3
BITMAP
8080
4100
4100
2200
2200
1400
1400
0800
0800
0800
0800
0800
ENDCHAR
STARTCHAR 03B4
ENCODING 948
SWIDTH 600 0
DWIDTH 10 0
BBX 8 13 1 0
BITMAP
1C
20
40
40
20
3C
42
81
81
81
81
42
3C
ENDCHAR
STARTCHAR 03B5
ENCODING 949
SWIDTH 420 0
DWIDTH 7 0
BBX 5 9 1 0
BITMAP
70
88
80
80
60
80
80
88
70
ENDCHAR
STARTCHAR 03B6
ENCODING 950
SWIDTH 480 0
DWIDTH 8 0
BBX 7 16 1 -3
BITMAP
7E
04
08
10
20
40
40
80
80
80
80
40
3C
02
02
3C
ENDCHAR
STARTCHAR 03B7
ENCODING 951
SWIDTH 600 0
DWIDTH 10 0
BBX 8 12 1 -3
BITMAP
BC
C2
81
81
81
81
81
81
81
01
01
01
ENDCHAR
STARTCHAR 03B8
ENCODING 952
SWIDTH 660 0
DWIDTH 11 0
BBX 9 13 1 0
BITMAP
3E00
4100
8080
8080
8080
8080
FF80
8080
8080
8080
8080
4100
3E00
ENDCHAR
STARTCHAR 03B9
ENCODING 953
SWIDTH 180 0
DWIDTH 3 0
BBX 1 9 1 0
BITMAP
80
80
80
80
80
80
80
80
80
ENDCHAR
STARTCHAR 03BA
ENCODING 954
SWIDTH 540 0
DWIDTH 9 0
BBX 7 9 1 0
BITMAP
82
8C
90
E0
E0
90
88
84
82
ENDCHAR
STARTCHAR 03BB
ENCODING 955
SWIDTH 540 0
DWIDTH 9 0
BBX 9 13 0 0
BITMAP
2000
3000
1000
1800
0800
1C00
1400
2600
2200
4200
4100
8100
8080
ENDCHAR
STARTCHAR 03BC
ENCODING 956
SWIDTH 600 0
DWIDTH 10 0
BBX 8 12 1 -3
BITMAP
81
81
81
81
81
81
81
C3
BD
80
80
80
ENDCHAR
STARTCHAR 03BD
ENCODING 957
SWIDTH 660 0
DWIDTH 11 0
BBX 9 9 1 0
BITMAP
8080
4100
4100
2200
2200
2200
1400
1400
0800
ENDCHAR
STARTCHAR 03BE
ENCODING 958
SWIDTH 480 0
DWIDTH 8 0
BBX 7 16 1 -3
BITMAP
3E
40
40
40
40
3C
40
80
80
80
80
60
3C
02
02
1C
ENDCHAR
STARTCHAR 03BF
ENCODING 959
SWIDTH 660 0
DWIDTH 11 0
BBX 9 9 1 0
BITMAP
3E00
4100
8080
8080
8080
8080
8080
4100
3E00
ENDCHAR
STARTCHAR 03C0
ENCODING 960
SWIDTH 660 0
DWIDTH 11 0
BBX 9 9 1 0
BITMAP
FF80
2200
2200
2200
2200
2200
2200
2200
2200
ENDCHAR
STARTCHAR 03C1
ENCODING 961
SWIDTH 660 0
DWIDTH 11 0
BBX 9 12 1 -3
BITMAP
3E00
4100
8080
8080
8080
8080
8080
C100
BE00
8000
8000
8000
ENDCHAR
STARTCHAR 03C2
ENCODING 962
SWIDTH 600 0
DWIDTH 10 0
BBX 8 12 1 -3
BITMAP
3C
43
80
80
80
80
80
60
1C
02
02
1C
ENDCHAR
STARTCHAR 03C3
ENCODING 963
SWIDTH 720 0
DWIDTH 12 0
BBX 10 9 1 0
BITMAP
3FC0
4100
8080
8080
8080
8080
8080
4100
3E00
ENDCHAR
STARTCHAR 03C4
ENCODING 964
SWIDTH 420 0
DWIDTH 7 0
BBX 5 9 1 0
BITMAP
F8
20
20
20
20
20
20
20
20
ENDCHAR
STARTCHAR 03C5
ENCODING 965
SWIDTH 600 0
DWIDTH 10 0
BBX 8 9 1 0
BITMAP
84
82
81
81
81
81
81
42
3C
ENDCHAR
STARTCHAR 03C6
ENCODING 966
SWIDTH 780 0
DWIDTH 13 0
BBX 11 12 1 -3
BITMAP
1780
6440
8420
8420
8420
8420
8420
64C0
1F00
0400
0400
0400
ENDCHAR
STARTCHAR 03C7
ENCODING 967
SWIDTH 480 0
DWIDTH 8 0
BBX 8 12 0 -3
BITMAP
81
42
42
24
24
18
18
24
24
42
42
81
ENDCHAR
STARTCHAR 03C8
ENCODING 968
SWIDTH 780 0
DWIDTH 13 0
BBX 11 12 1 -3
BITMAP
8420
8420
8420
8420
8420
8420
8420
4440
3F80
0400
0400
0400
ENDCHAR
STARTCHAR 03C9
ENCODING 969
SWIDTH 900 0
DWIDTH 15 0
BBX 13 9 1 0
BITMAP
18C0
6030
4010
8008
8208
8208
8208
4510
38E0
ENDCHAR
STARTCHAR 03CA
ENCODING 970
SWIDTH 180 0
DWIDTH 3 0
BBX 5 12 -1 0
BITMAP
D8
D8
00
20
20
20
20
20
20
20
20
20
ENDCHAR
STARTCHAR 03CB
ENCODING 971
SWIDTH 600 0
DWIDTH 10 0
BBX 8 13 1 0
BITMAP
36
36
00
00
84
82
81
81
81
81
81
42
3C
ENDCHAR
STARTCHAR 03CC
ENCODING 972
SWIDTH 660 0
DWIDTH 11 0
BBX 9 13 1 0
BITMAP
0800
0C00
0C00
0000
3E00
4100
8080
8080
8080
8080
8080
4100
3E00
ENDCHAR
STARTCHAR 03CD
ENCODING 973
SWIDTH 600 0
DWIDTH 10 0
BBX 8 13 1 0
BITMAP
08
0C
0C
00
84
82
81
81
81
81
81
42
3C
ENDCHAR
STARTCHAR 03CE
ENCODING 974
SWIDTH 900 0
DWIDTH 15 0
BBX 13 13 1 0
BITMAP
0200
0300
0300
0000
18C0
6030
4010
8008
8208
8208
8208
4510
38E0
ENDCHAR
STARTCHAR 0401
ENCODING 1025
SWIDTH 540 0
DWIDTH 9 0
BBX 6 15 2 0
BITMAP
6C
6C
00
FC
80
80
80
80
FC
80
80
80
80
80
FC
ENDCHAR
STARTCHAR 0402
ENCODING 1026
SWIDTH 660 0
DWIDTH 11 0
BBX 10 12 0 0
BITMAP
FE00
1000
1000
1000
1000
1F00
1080
1040
1040
1040
1280
1100
ENDCHAR
STARTCHAR 0403
ENCODING 1027
SWIDTH 480 0
DWIDTH 8 0
BBX 6 16 2 0
BITMAP
0C
18
30
00
FC
80
80
80
80
80
80
80
80
80
80
80
ENDCHAR
STARTCHAR 0404
ENCODING 1028
SWIDTH 840 0
DWIDTH 14 0
BBX 12 12 1 0
BITMAP
1FC0
2020
4010
8000
8000
FE00
8000
8000
8000
4010
2020
1FC0
ENDCHAR
STARTCHAR 0405
ENCODING 1029
SWIDTH 480 0
DWIDTH 8 0
BBX 7 12 0 0
BITMAP
18
24
42
40
20
18
04
02
02
82
44
38
ENDCHAR
STARTCHAR 0406
ENCODING 1030
SWIDTH 300 0
DWIDTH 5 0
BBX 1 12 2 0
BITMAP
80
80
80
80
80
80
80
80
80
80
80
80
ENDCHAR
STARTCHAR 0407
ENCODING 1031
SWIDTH 300 0
DWIDTH 5 0
BBX 5 15 0 0
BITMAP
D8
D8
00
20
20
20
20
20
20
20
20
20
20
20
20
ENDCHAR
STARTCHAR 0408
ENCODING 1032
SWIDTH 480 0
DWIDTH 8 0
BBX 5 12 1 0
BITMAP
08
08
08
08
08
08
08
08
08
08
90
60
ENDCHAR
STARTCHAR 0409
ENCODING 1033
SWIDTH 1080 0
DWIDTH 18 0
BBX 17 12 0 0
BITMAP
060000
060000
090000
090000
108000
10FE00
204100
204080
406080
402080
802100
801E00
ENDCHAR
STARTCHAR 040A
ENCODING 1034
SWIDTH 1080 0
DWIDTH 18 0
BBX 15 12 2 0
BITMAP
8080
8080
8080
8080
8080
FFF8
8084
8082
8082
8082
8084
80F8
ENDCHAR
STARTCHAR 040B
ENCODING 1035
SWIDTH 720 0
DWIDTH 12 0
BBX 11 12 0 0
BITMAP
FE00
1000
1000
1000
1000
1F80
1040
1020
1020
1020
1020
1020
ENDCHAR
STARTCHAR 040C
ENCODING 1036
SWIDTH 600 0
DWIDTH 10 0
BBX 7 16 2 0
BITMAP
06
0C
18
00
84
88
90
90
A0
C0
C0
A0
90
88
84
82
ENDCHAR
STARTCHAR 040E
ENCODING 1038
SWIDTH 660 0
DWIDTH 11 0
BBX 9 15 1 0
BITMAP
4200
3C00
0000
8080
8080
4100
4100
2200
2200
1400
1400
0800
0800
9000
6000
ENDCHAR
STARTCHAR 040F
ENCODING 1039
SWIDTH 660 0
DWIDTH 11 0
BBX 7 14 2 -2
BITMAP
82
82
82
82
82
82
82
82
82
82
82
FE
10
10
ENDCHAR
STARTCHAR 0410
ENCODING 1040
SWIDTH 780 0
DWIDTH 13 0
BBX 11 12 1 0
BITMAP
0400
0A00
0A00
0A00
1100
1100
2080
3F80
4040
4040
4040
8020
ENDCHAR
STARTCHAR 0411
ENCODING 1041
SWIDTH 600 0
DWIDTH 10 0
BBX 7 12 2 0
BITMAP
FC
80
80
80
80
F8
84
82
82
82
84
F8
ENDCHAR
STARTCHAR 0412
ENCODING 1042
SWIDTH 600 0
DWIDTH 10 0
BBX 7 12 2 0
BITMAP
F0
88
84
84
88
F8
84
82
82
82
84
F8
ENDCHAR
STARTCHAR 0413
ENCODING 1043
SWIDTH 480 0
DWIDTH 8 0
BBX 6 12 2 0
BITMAP
FC
80
80
80
80
80
80
80
80
80
80
80
ENDCHAR
STARTCHAR 0414
ENCODING 1044
SWIDTH 780 0
DWIDTH 13 0
BBX 13 14 0 -2
BITMAP
0200
0500
0500
0500
0880
0880
1040
1040
1040
2020
2020
FFF8
8008
8008
ENDCHAR
STARTCHAR 0415
ENCODING 1045
SWIDTH 540 0
DWIDTH 9 0
BBX 6 12 2 0
BITMAP
FC
80
80
80
80
FC
80
80
80
80
80
FC
ENDCHAR
STARTCHAR 0416
ENCODING 1046
SWIDTH 960 0
DWIDTH 16 0
BBX 13 12 1 0
BITMAP
8208
4210
2220
1240
0A80
0700
0A80
1240
1240
2220
4210
8208
ENDCHAR
STARTCHAR 0417
ENCODING 1047
SWIDTH 600 0
DWIDTH 10 0
BBX 8 12 1 0
BITMAP
38
44
02
02
04
1C
02
01
01
81
82
7C
ENDCHAR
STARTCHAR 0418
ENCODING 1048
SWIDTH 780 0
DWIDTH 13 0
BBX 9 12 2 0
BITMAP
8080
8080
8180
8280
8480
8880
8880
9080
A080
C080
8080
8080
ENDCHAR
STARTCHAR 0419
ENCODING 1049
SWIDTH 780 0
DWIDTH 13 0
BBX 9 15 2 0
BITMAP
2100
1E00
0000
8080
8080
8180
8280
8480
8880
8880
9080
A080
C080
8080
8080
ENDCHAR
STARTCHAR 041A
ENCODING 1050
SWIDTH 600 0
DWIDTH 10 0
BBX 7 12 2 0
BITMAP
84
88
90
90
A0
C0
C0
A0
90
88
84
82
ENDCHAR
STARTCHAR 041B
ENCODING 1051
SWIDTH 660 0
DWIDTH 11 0
BBX 11 12 0 0
BITMAP
0400
0A00
0A00
0A00
1100
1100
2080
2080
4040
4040
4040
8020
ENDCHAR
STARTCHAR 041C
ENCODING 1052
SWIDTH 1020 0
DWIDTH 17 0
BBX 15 12 1 0
BITMAP
2008
2008
5014
5014
4824
4824
4844
4444
4444
8282
8282
8102
ENDCHAR
STARTCHAR 041D
ENCODING 1053
SWIDTH 720 0
DWIDTH 12 0
BBX 8 12 2 0
BITMAP
81
81
81
81
81
FF
81
81
81
81
81
81
ENDCHAR
STARTCHAR 041E
ENCODING 1054
SWIDTH 900 0
DWIDTH 15 0
BBX 13 12 1 0
BITMAP
1FC0
2020
4010
8008
8008
8008
8008
8008
8008
4010
2020
1FC0
ENDCHAR
STARTCHAR 041F
ENCODING 1055
SWIDTH 720 0
DWIDTH 12 0
BBX 8 12 2 0
BITMAP
FF
81
81
81
81
81
81
81
81
81
81
81
ENDCHAR
STARTCHAR 0420
ENCODING 1056
SWIDTH 600 0
DWIDTH 10 0
BBX 7 12 2 0
BITMAP
F8
84
82
82
84
F8
80
80
80
80
80
80
ENDCHAR
STARTCHAR 0421
ENCODING 1057
SWIDTH 840 0
DWIDTH 14 0
BBX 12 12 1 0
BITMAP
1F80
2060
4010
8000
8000
8000
8000
8000
8000
4010
2060
1F80
ENDCHAR
STARTCHAR 0422
ENCODING 1058
SWIDTH 480 0
DWIDTH 8 0
BBX 7 12 0 0
BITMAP
FE
10
10
10
10
10
10
10
10
10
10
10
ENDCHAR
STARTCHAR 0423
ENCODING 1059
SWIDTH 660 0
DWIDTH 11 0
BBX 9 12 1 0
BITMAP
8080
8080
4100
4100
2200
2200
1400
1400
0800
0800
9000
6000
ENDCHAR
STARTCHAR 0424
ENCODING 1060
SWIDTH 900 0
DWIDTH 15 0
BBX 13 12 1 0
BITMAP
0200
0200
3FE0
4210
8208
8208
8208
4210
3FE0
0200
0200
0200
ENDCHAR
STARTCHAR 0425
ENCODING 1061
SWIDTH 600 0
DWIDTH 10 0
BBX 9 12 0 0
BITMAP
8080
4100
4100
2200
1400
0800
0800
1400
2200
4100
4100
8080
ENDCHAR
STARTCHAR 0426
ENCODING 1062
SWIDTH 720 0
DWIDTH 12 0
BBX 10 14 2 -2
BITMAP
8100
8100
8100
8100
8100
8100
8100
8100
8100
8100
8100
FFC0
0040
0040
ENDCHAR
STARTCHAR 0427
ENCODING 1063
SWIDTH 540 0
DWIDTH 9 0
BBX 7 12 0 0
BITMAP
82
82
82
82
42
3E
02
02
02
02
02
02
ENDCHAR
STARTCHAR 0428
ENCODING 1064
SWIDTH 1020 0
DWIDTH 17 0
BBX 13 12 2 0
BITMAP
8208
8208
8208
8208
8208
8208
8208
8208
8208
8208
8208
FFF8
ENDCHAR
STARTCHAR 0429
ENCODING 1065
SWIDTH 1080 0
DWIDTH 18 0
BBX 16 14 2 -2
BITMAP
8208
8208
8208
8208
8208
8208
8208
8208
8208
8208
8208
FFFF
0001
0001
ENDCHAR
STARTCHAR 042A
ENCODING 1066
SWIDTH 720 0
DWIDTH 12 0
BBX 11 12 0 0
BITMAP
F000
1000
1000
1000
1000
1F80
1040
1020
1020
1020
1040
1F80
ENDCHAR
STARTCHAR 042B
ENCODING 1067
SWIDTH 780 0
DWIDTH 13 0
BBX 9 12 2 0
BITMAP
8080
8080
8080
8080
8080
F880
8480
8280
8280
8280
8480
F880
ENDCHAR
STARTCHAR 042C
ENCODING 1068
SWIDTH 600 0
DWIDTH 10 0
BBX 7 12 2 0
BITMAP
80
80
80
80
80
F8
84
82
82
82
84
F8
ENDCHAR
STARTCHAR 042D
ENCODING 1069
SWIDTH 840 0
DWIDTH 14 0
BBX 12 12 1 0
BITMAP
3F80
4040
8020
0010
0010
07F0
0010
0010
0010
8020
4040
3F80
ENDCHAR
STARTCHAR 042E
ENCODING 1070
SWIDTH 1140 0
DWIDTH 19 0
BBX 16 12 2 0
BITMAP
83F8
8404
8802
9001
9001
F001
9001
9001
9001
8802
8404
83F8
ENDCHAR
STARTCHAR 042F
ENCODING 1071
SWIDTH 600 0
DWIDTH 10 0
BBX 7 12 1 0
BITMAP
3E
42
82
82
42
3E
0A
12
22
22
42
82
ENDCHAR
STARTCHAR 0430
ENCODING 1072
SWIDTH 720 0
DWIDTH 12 0
BBX 10 9 1 0
BITMAP
3F40
40C0
8040
8040
8040
8040
8040
40C0
3F40
ENDCHAR
STARTCHAR 0431
ENCODING 1073
SWIDTH 660 0
DWIDTH 11 0
BBX 9 13 1 0
BITMAP
1F00
6000
4000
8000
9E00
A100
C080
8080
8080
8080
8080
4100
3E00
ENDCHAR
STARTCHAR 0432
ENCODING 1074
SWIDTH 480 0
DWIDTH 8 0
BBX 6 9 1 0
BITMAP
F0
88
88
88
F8
84
84
84
F8
ENDCHAR
STARTCHAR 0433
ENCODING 1075
SWIDTH 360 0
DWIDTH 6 0
BBX 5 9 1 0
BITMAP
F8
80
80
80
80
80
80
80
80
ENDCHAR
STARTCHAR 0434
ENCODING 1076
SWIDTH 600 0
DWIDTH 10 0
BBX 10 11 0 -2
BITMAP
0C00
0C00
0C00
1200
1200
1200
2100
2100
FFC0
8040
8040
ENDCHAR
STARTCHAR 0435
ENCODING 1077
SWIDTH 660 0
DWIDTH 11 0
BBX 9 9 1 0
BITMAP
3E00
4100
8080
8080
FF80
8000
8080
4100
3E00
ENDCHAR
STARTCHAR 0436
ENCODING 1078
SWIDTH 780 0
DWIDTH 13 0
BBX 13 9 0 0
BITMAP
C210
2220
1240
0A80
0F80
1240
2220
4210
8208
ENDCHAR
STARTCHAR 0437
ENCODING 1079
SWIDTH 420 0
DWIDTH 7 0
BBX 6 9 0 0
BITMAP
78
84
04
04
38
04
04
84
78
ENDCHAR
STARTCHAR 0438
ENCODING 1080
SWIDTH 600 0
DWIDTH 10 0
BBX 8 9 1 0
BITMAP
81
83
85
89
91
91
A1
C1
81
ENDCHAR
STARTCHAR 0439
ENCODING 1081
SWIDTH 600 0
DWIDTH 10 0
BBX 8 12 1 0
BITMAP
42
3C
00
81
83
85
89
91
91
A1
C1
81
ENDCHAR
STARTCHAR 043A
ENCODING 1082
SWIDTH 540 0
DWIDTH 9 0
BBX 7 9 1 0
BITMAP
84
88
90
A0
C0
A0
90
8C
82
ENDCHAR
STARTCHAR 043B
ENCODING 1083
SWIDTH 540 0
DWIDTH 9 0
BBX 9 9 0 0
BITMAP
0800
1400
1400
2200
2200
4100
4100
8080
8080
ENDCHAR
STARTCHAR 043C
ENCODING 1084
SWIDTH 900 0
DWIDTH 15 0
BBX 13 9 1 0
BITMAP
1040
2860
28A0
28A0
4910
4510
4510
8208
8208
ENDCHAR
STARTCHAR 043D
ENCODING 1085
SWIDTH 600 0
DWIDTH 10 0
BBX 8 9 1 0
BITMAP
81
81
81
81
FF
81
81
81
81
ENDCHAR
STARTCHAR 043E
ENCODING 1086
SWIDTH 660 0
DWIDTH 11 0
BBX 9 9 1 0
BITMAP
3E00
4100
8080
8080
8080
8080
8080
4100
3E00
ENDCHAR
STARTCHAR 043F
ENCODING 1087
SWIDTH 600 0
DWIDTH 10 0
BBX 8 9 1 0
BITMAP
FF
81
81
81
81
81
81
81
81
ENDCHAR
STARTCHAR 0440
ENCODING 1088
SWIDTH 720 0
DWIDTH 12 0
BBX 10 12 1 -3
BITMAP
BF00
C080
8040
8040
8040
8040
8040
C080
BF00
8000
8000
8000
ENDCHAR
STARTCHAR 0441
ENCODING 1089
SWIDTH 660 0
DWIDTH 11 0
BBX 9 9 1 0
BITMAP
3E00
4100
8080
8000
8000
8000
8080
4100
3E00
ENDCHAR
STARTCHAR 0442
ENCODING 1090
SWIDTH 420 0
DWIDTH 7 0
BBX 5 9 1 0
BITMAP
F8
20
20
20
20
20
20
20
20
ENDCHAR
STARTCHAR 0443
ENCODING 1091
SWIDTH 480 0
DWIDTH 8 0
BBX 8 12 0 -3
BITMAP
81
42
42
42
24
24
18
18
10
10
10
20
ENDCHAR
STARTCHAR 0444
ENCODING 1092
SWIDTH 1080 0
DWIDTH 18 0
BBX 16 16 1 -3
BITMAP
0100
0100
0100
0100
3D7C
4382
8101
8101
8101
8101
8101
4382
3D7C
0100
0100
0100
ENDCHAR
STARTCHAR 0445
ENCODING 1093
SWIDTH 480 0
DWIDTH 8 0
BBX 8 9 0 0
BITMAP
81
42
24
18
18
18
24
42
81
ENDCHAR
STARTCHAR 0446
ENCODING 1094
SWIDTH 660 0
DWIDTH 11 0
BBX 10 11 1 -2
BITMAP
8100
8100
8100
8100
8100
8100
8100
8100
FFC0
0040
0040
ENDCHAR
STARTCHAR 0447
ENCODING 1095
SWIDTH 480 0
DWIDTH 8 0
BBX 6 9 1 0
BITMAP
84
84
84
84
7C
04
04
04
04
ENDCHAR
STARTCHAR 0448
ENCODING 1096
SWIDTH 960 0
DWIDTH 16 0
BBX 14 9 1 0
BITMAP
8204
8204
8204
8204
8204
8204
8204
8204
FFFC
ENDCHAR
STARTCHAR 0449
ENCODING 1097
SWIDTH 1020 0
DWIDTH 17 0
BBX 16 11 1 -2
BITMAP
8204
8204
8204
8204
8204
8204
8204
8204
FFFF
0001
0001
ENDCHAR
STARTCHAR 044A
ENCODING 1098
SWIDTH 540 0
DWIDTH 9 0
BBX 8 9 0 0
BITMAP
E0
20
20
20
3E
21
21
21
3E
ENDCHAR
STARTCHAR 044B
ENCODING 1099
SWIDTH 660 0
DWIDTH 11 0
BBX 9 9 1 0
BITMAP
8080
8080
8080
8080
F880
8480
8480
8480
F880
ENDCHAR
STARTCHAR 044C
ENCODING 1100
SWIDTH 480 0
DWIDTH 8 0
BBX 6 9 1 0
BITMAP
80
80
80
80
F8
84
84
84
F8
ENDCHAR
STARTCHAR 044D
ENCODING 1101
SWIDTH 660 0
DWIDTH 11 0
BBX 9 9 1 0
BITMAP
7E00
8100
0080
0080
0F80
0080
0080
8100
7E00
ENDCHAR
STARTCHAR 044E
ENCODING 1102
SWIDTH 840 0
DWIDTH 14 0
BBX 12 9 1 0
BITMAP
87C0
8820
9010
9010
F010
9010
9010
8820
87C0
ENDCHAR
STARTCHAR 044F
ENCODING 1103
SWIDTH 480 0
DWIDTH 8 0
BBX 6 9 1 0
BITMAP
7C
84
84
84
7C
14
24
44
84
ENDCHAR
STARTCHAR 0451
ENCODING 1105
SWIDTH 660 0
DWIDTH 11 0
BBX 9 12 1 0
BITMAP
3600
3600
0000
3E00
4100
8080
8080
FF80
8000
8080
4100
3E00
ENDCHAR
STARTCHAR 0452
ENCODING 1106
SWIDTH 600 0
DWIDTH 10 0
BBX 9 16 0 -3
BITMAP
4000
4000
FC00
4000
5E00
6100
4080
4080
4080
4080
4080
4080
4080
0080
0080
0300
ENDCHAR
STARTCHAR 0453
ENCODING 1107
SWIDTH 360 0
DWIDTH 6 0
BBX 6 13 1 0
BITMAP
0C
18
30
00
F8
80
80
80
80
80
80
80
80
ENDCHAR
STARTCHAR 0454
ENCODING 1108
SWIDTH 660 0
DWIDTH 11 0
BBX 9 9 1 0
BITMAP
3F00
4080
8000
8000
F800
8000
8000
4080
3F00
ENDCHAR
STARTCHAR 0455
ENCODING 1109
SWIDTH 420 0
DWIDTH 7 0
BBX 6 9 0 0
BITMAP
78
84
80
40
30
08
04
84
78
ENDCHAR
STARTCHAR 0456
ENCODING 1110
SWIDTH 180 0
DWIDTH 3 0
BBX 1 13 1 0
BITMAP
80
80
00
00
80
80
80
80
80
80
80
80
80
ENDCHAR
STARTCHAR 0457
ENCODING 1111
SWIDTH 180 0
DWIDTH 3 0
BBX 5 12 -1 0
BITMAP
D8
D8
00
20
20
20
20
20
20
20
20
20
ENDCHAR
STARTCHAR 0458
ENCODING 1112
SWIDTH 180 0
DWIDTH 3 0
BBX 3 16 -1 -3
BITMAP
20
20
00
00
20
20
20
20
20
20
20
20
20
20
20
C0
ENDCHAR
STARTCHAR 0459
ENCODING 1113
SWIDTH 780 0
DWIDTH 13 0
BBX 11 9 1 0
BITMAP
1000
2800
2800
2800
47C0
4420
4420
8220
83C0
ENDCHAR
STARTCHAR 045A
ENCODING 1114
SWIDTH 840 0
DWIDTH 14 0
BBX 12 9 1 0
BITMAP
8200
8200
8200
8200
FFE0
8210
8210
8210
83E0
ENDCHAR
STARTCHAR 045B
ENCODING 1115
SWIDTH 600 0
DWIDTH 10 0
BBX 9 13 0 0
BITMAP
4000
4000
FC00
4000
5E00
6100
4080
4080
4080
4080
4080
4080
4080
ENDCHAR
STARTCHAR 045C
ENCODING 1116
SWIDTH 540 0
DWIDTH 9 0
BBX 7 13 1 0
BITMAP
06
0C
18
00
84
88
90
A0
C0
A0
90
8C
82
ENDCHAR
STARTCHAR 045E
ENCODING 1118
SWIDTH 480 0
DWIDTH 8 0
BBX 8 15 0 -3
BITMAP
42
3C
00
81
42
42
42
24
24
18
18
10
10
10
20
ENDCHAR
STARTCHAR 045F
ENCODING 1119
SWIDTH 600 0
DWIDTH 10 0
BBX 8 11 1 -2
BITMAP
81
81
81
81
81
81
81
81
FF
10
10
ENDCHAR
STARTCHAR 0490
ENCODING 1168
SWIDTH 420 0
DWIDTH 7 0
BBX 5 14 2 0
BITMAP
08
08
F8
80
80
80
80
80
80
80
80
80
80
80
ENDCHAR
STARTCHAR 0491
ENCODING 1169
SWIDTH 360 0
DWIDTH 6 0
BBX 4 11 1 0
BITMAP
10
10
F0
80
80
80
80
80
80
80
80
ENDCHAR
STARTCHAR 1E80
ENCODING 7808
SWIDTH 1020 0
DWIDTH 17 0
BBX 15 16 1 0
BITMAP
0600
0300
0180
0000
8102
8302
4284
4284
4444
4444
2448
2828
2828
2828
1010
1010
ENDCHAR
STARTCHAR 1E81
ENCODING 7809
SWIDTH 840 0
DWIDTH 14 0
BBX 13 13 0 0
BITMAP
0C00
0600
0300
0000
8208
4210
4510
4510
2920
28A0
28A0
1040
1040
ENDCHAR
STARTCHAR 1E82
ENCODING 7810
SWIDTH 1020 0
DWIDTH 17 0
BBX 15 16 1 0
BITMAP
0060
00C0
0180
0000
8102
8302
4284
4284
4444
4444
2448
2828
2828
2828
1010
1010
ENDCHAR
STARTCHAR 1E83
ENCODING 7811
SWIDTH 840 0
DWIDTH 14 0
BBX 13 13 0 0
BITMAP
0180
0300
0600
0000
8208
4210
4510
4510
2920
28A0
28A0
1040
1040
ENDCHAR
STARTCHAR 1E84
ENCODING 7812
SWIDTH 960 0
DWIDTH 16 0
BBX 15 15 1 0
BITMAP
06C0
06C0
0000
8102
8302
4284
4284
4444
4444
2448
2828
2828
2828
1010
1010
ENDCHAR
STARTCHAR 1E85
ENCODING 7813
SWIDTH 840 0
DWIDTH 14 0
BBX 13 12 0 0
BITMAP
0D80
0D80
0000
8208
4210
4510
4510
2920
28A0
28A0
1040
1040
ENDCHAR
STARTCHAR 1EF2
ENCODING 7922
SWIDTH 660 0
DWIDTH 11 0
BBX 9 16 1 0
BITMAP
3000
1800
0C00
0000
8080
4100
2200
2200
1400
0800
0800
0800
0800
0800
0800
0800
ENDCHAR
STARTCHAR 1EF3
ENCODING 7923
SWIDTH 480 0
DWIDTH 8 0
BBX 8 16 0 -3
BITMAP
60
30
18
00
81
42
42
42
24
24
18
18
10
10
10
20
ENDCHAR
STARTCHAR 2013
ENCODING 8211
SWIDTH 540 0
DWIDTH 9 0
BBX 9 1 0 4
BITMAP
FF80
ENDCHAR
STARTCHAR 2014
ENCODING 8212
SWIDTH 1020 0
DWIDTH 17 0
BBX 17 1 0 4
BITMAP
FFFF80
ENDCHAR
STARTCHAR 2015
ENCODING 8213
SWIDTH 780 0
DWIDTH 13 0
BBX 13 1 0 4
BITMAP
FFF8
ENDCHAR
STARTCHAR 2017
ENCODING 8215
SWIDTH 540 0
DWIDTH 9 0
BBX 11 3 -1 -4
BITMAP
FFE0
0000
FFE0
ENDCHAR
STARTCHAR 2018
ENCODING 8216
SWIDTH 360 0
DWIDTH 6 0
BBX 2 4 2 9
BITMAP
40
80
C0
C0
ENDCHAR
STARTCHAR 2019
ENCODING 8217
SWIDTH 360 0
DWIDTH 6 0
BBX 2 4 2 9
BITMAP
C0
C0
40
80
ENDCHAR
STARTCHAR 201A
ENCODING 8218
SWIDTH 360 0
DWIDTH 6 0
BBX 2 4 2 -2
BITMAP
C0
C0
40
80
ENDCHAR
STARTCHAR 201B
ENCODING 8219
SWIDTH 360 0
DWIDTH 6 0
BBX 2 4 2 9
BITMAP
C0
C0
80
40
ENDCHAR
STARTCHAR 201C
ENCODING 8220
SWIDTH 540 0
DWIDTH 9 0
BBX 6 4 1 9
BITMAP
44
88
CC
CC
ENDCHAR
STARTCHAR 201D
ENCODING 8221
SWIDTH 480 0
DWIDTH 8 0
BBX 6 4 1 9
BITMAP
CC
CC
44
88
ENDCHAR
STARTCHAR 201E
ENCODING 8222
SWIDTH 540 0
DWIDTH 9 0
BBX 6 4 1 -2
BITMAP
CC
CC
44
88
ENDCHAR
STARTCHAR 2020
ENCODING 8224
SWIDTH 540 0
DWIDTH 9 0
BBX 7 16 1 -3
BITMAP
10
10
10
10
FE
10
10
10
10
10
10
10
10
10
10
10
ENDCHAR
STARTCHAR 2021
ENCODING 8225
SWIDTH 600 0
DWIDTH 10 0
BBX 7 16 1 -3
BITMAP
10
10
10
FE
10
10
10
10
10
10
10
10
FE
10
10
10
ENDCHAR
STARTCHAR 2022
ENCODING 8226
SWIDTH 600 0
DWIDTH 10 0
BBX 5 5 2 4
BITMAP
70
F8
F8
F8
70
ENDCHAR
STARTCHAR 2026
ENCODING 8230
SWIDTH 1080 0
DWIDTH 18 0
BBX 14 2 2 0
BITMAP
C30C
C30C
ENDCHAR
STARTCHAR 2030
ENCODING 8240
SWIDTH 1200 0
DWIDTH 20 0
BBX 20 12 0 0
BITMAP
7FF000
8C2000
844000
848000
850000
7A0000
02F1E0
050A10
090A10
110A10
210A10
40F1E0
ENDCHAR
STARTCHAR 2032
ENCODING 8242
SWIDTH 180 0
DWIDTH 3 0
BBX 2 4 1 9
BITMAP
40
40
80
80
ENDCHAR
STARTCHAR 2033
ENCODING 8243
SWIDTH 300 0
DWIDTH 5 0
BBX 5 4 0 9
BITMAP
48
48
90
90
ENDCHAR
STARTCHAR 2039
ENCODING 8249
SWIDTH 240 0
DWIDTH 4 0
BBX 3 9 1 0
BITMAP
20
40
40
80
80
80
40
40
20
ENDCHAR
STARTCHAR 203A
ENCODING 8250
SWIDTH 240 0
DWIDTH 4 0
BBX 3 9 1 0
BITMAP
80
40
40
20
20
20
40
40
80
ENDCHAR
STARTCHAR 203C
ENCODING 8252
SWIDTH 540 0
DWIDTH 9 0
BBX 4 13 3 0
BITMAP
90
90
90
90
90
90
90
90
90
90
00
90
90
ENDCHAR
STARTCHAR 203E
ENCODING 8254
SWIDTH 540 0
DWIDTH 9 0
BBX 9 1 0 15
BITMAP
FF80
ENDCHAR
STARTCHAR 2044
ENCODING 8260
SWIDTH 180 0
DWIDTH 3 0
BBX 9 13 -3 0
BITMAP
0080
0100
0200
0200
0400
0400
0800
1000
1000
2000
2000
4000
8000
ENDCHAR
STARTCHAR 207F
ENCODING 8319
SWIDTH 360 0
DWIDTH 6 0
BBX 5 6 1 5
BITMAP
B0
C8
88
88
88
88
ENDCHAR
STARTCHAR 20A3
ENCODING 8355
SWIDTH 480 0
DWIDTH 8 0
BBX 7 12 0 0
BITMAP
7E
40
40
40
40
7E
40
40
40
F0
40
40
ENDCHAR
STARTCHAR 20A4
ENCODING 8356
SWIDTH 540 0
DWIDTH 9 0
BBX 8 12 0 0
BITMAP
3C
46
42
40
FC
20
FC
10
10
71
99
EE
ENDCHAR
STARTCHAR 20A7
ENCODING 8359
SWIDTH 1080 0
DWIDTH 18 0
BBX 16 13 1 0
BITMAP
0080
FC80
8680
8280
83FE
8691
FC90
8088
8086
8081
8081
8091
808E
ENDCHAR
STARTCHAR 20AC
ENCODING 8364
SWIDTH 540 0
DWIDTH 9 0
BBX 8 12 0 0
BITMAP
0F
10
20
40
FE
40
FC
40
40
20
10
0F
ENDCHAR
STARTCHAR 2105
ENCODING 8453
SWIDTH 900 0
DWIDTH 15 0
BBX 15 13 0 0
BITMAP
7010
8820
8020
8040
8880
7080
0100
021C
0222
0422
0822
0822
101C
ENDCHAR
STARTCHAR 2113
ENCODING 8467
SWIDTH 360 0
DWIDTH 6 0
BBX 5 13 1 0
BITMAP
30
48
48
48
50
60
40
40
C0
40
40
48
38
ENDCHAR
STARTCHAR 2116
ENCODING 8470
SWIDTH 1140 0
DWIDTH 19 0
BBX 16 12 2 0
BITMAP
8040
C040
C040
A044
904A
8851
8451
824A
8144
8140
80C0
805F
ENDCHAR
STARTCHAR 2122
ENCODING 8482
SWIDTH 1020 0
DWIDTH 17 0
BBX 17 7 0 6
BITMAP
FEC180
10C180
10A280
10B680
109480
108880
108880
ENDCHAR
STARTCHAR 2126
ENCODING 8486
SWIDTH 780 0
DWIDTH 13 0
BBX 11 12 1 0
BITMAP
1F00
2080
4040
8020
8020
8020
8020
8020
4040
60C0
1100
FBE0
ENDCHAR
STARTCHAR 212E
ENCODING 8494
SWIDTH 600 0
DWIDTH 10 0
BBX 8 10 1 0
BITMAP
3C
42
C3
C3
FF
C0
C0
41
63
3C
ENDCHAR
STARTCHAR 215B
ENCODING 8539
SWIDTH 840 0
DWIDTH 14 0
BBX 12 13 2 0
BITMAP
0080
C100
4100
4200
4400
4400
4800
10E0
1110
20E0
4110
4110
80E0
ENDCHAR
STARTCHAR 215C
ENCODING 8540
SWIDTH 840 0
DWIDTH 14 0
BBX 14 13 0 0
BITMAP
0020
7040
8840
3080
0880
8900
7100
0238
0244
0438
0844
0844
1038
ENDCHAR
STARTCHAR 215D
ENCODING 8541
SWIDTH 840 0
DWIDTH 14 0
BBX 14 13 0 0
BITMAP
0020
7840
8040
F080
0880
8900
7200
0238
0444
0438
0844
0844
1038
ENDCHAR
STARTCHAR 215E
ENCODING 8542
SWIDTH 840 0
DWIDTH 14 0
BBX 13 13 1 0
BITMAP
0040
F880
1080
2100
4200
4200
8400
0870
0888
1070
2088
2088
4070
ENDCHAR
STARTCHAR 2190
ENCODING 8592
SWIDTH 1020 0
DWIDTH 17 0
BBX 16 7 1 1
BITMAP
1000
2000
4000
FFFF
4000
2000
1000
ENDCHAR
STARTCHAR 2191
ENCODING 8593
SWIDTH 540 0
DWIDTH 9 0
BBX 7 16 1 -4
BITMAP
10
38
54
92
10
10
10
10
10
10
10
10
10
10
10
10
ENDCHAR
STARTCHAR 2192
ENCODING 8594
SWIDTH 1020 0
DWIDTH 17 0
BBX 16 7 1 1
BITMAP
0008
0004
0002
FFFF
0002
0004
0008
ENDCHAR
STARTCHAR 2193
ENCODING 8595
SWIDTH 540 0
DWIDTH 9 0
BBX 7 16 1 -4
BITMAP
10
10
10
10
10
10
10
10
10
10
10
10
92
54
38
10
ENDCHAR
STARTCHAR 2194
ENCODING 8596
SWIDTH 1020 0
DWIDTH 17 0
BBX 16 7 1 1
BITMAP
1008
2004
4002
FFFF
4002
2004
1008
ENDCHAR
STARTCHAR 2195
ENCODING 8597
SWIDTH 540 0
DWIDTH 9 0
BBX 7 16 1 -4
BITMAP
10
38
54
92
10
10
10
10
10
10
10
10
92
54
38
10
ENDCHAR
STARTCHAR 21A8
ENCODING 8616
SWIDTH 540 0
DWIDTH 9 0
BBX 7 18 1 -6
BITMAP
10
38
54
92
10
10
10
10
10
10
10
10
92
54
38
10
00
FE
ENDCHAR
STARTCHAR 2202
ENCODING 8706
SWIDTH 480 0
DWIDTH 8 0
BBX 7 13 0 0
BITMAP
1C
32
22
02
02
1E
62
42
82
84
88
90
60
ENDCHAR
STARTCHAR 2206
ENCODING 8710
SWIDTH 600 0
DWIDTH 10 0
BBX 10 12 0 0
BITMAP
0400
0400
0C00
0A00
1200
1100
1100
2100
2080
4080
4080
FFC0
ENDCHAR
STARTCHAR 220F
ENCODING 8719
SWIDTH 840 0
DWIDTH 14 0
BBX 11 16 1 -3
BITMAP
FFE0
8020
8020
8020
8020
8020
8020
8020
8020
8020
8020
8020
8020
8020
8020
8020
ENDCHAR
STARTCHAR 2211
ENCODING 8721
SWIDTH 720 0
DWIDTH 12 0
BBX 10 16 1 -3
BITMAP
FFC0
8000
4000
2000
1000
1000
0800
0400
0800
0800
1000
2000
2000
4000
8000
FFC0
ENDCHAR
STARTCHAR 2212
ENCODING 8722
SWIDTH 600 0
DWIDTH 10 0
BBX 8 1 1 6
BITMAP
FF
ENDCHAR
STARTCHAR 2215
ENCODING 8725
SWIDTH 180 0
DWIDTH 3 0
BBX 9 13 -3 0
BITMAP
0080
0100
0200
0200
0400
0400
0800
1000
1000
2000
2000
4000
8000
ENDCHAR
STARTCHAR 2219
ENCODING 8729
SWIDTH 300 0
DWIDTH 5 0
BBX 2 2 1 5
BITMAP
C0
C0
ENDCHAR
STARTCHAR 221A
ENCODING 8730
SWIDTH 540 0
DWIDTH 9 0
BBX 8 16 1 0
BITMAP
01
01
01
01
02
02
02
62
A2
12
12
14
0C
0C
04
04
ENDCHAR
STARTCHAR 221E
ENCODING 8734
SWIDTH 720 0
DWIDTH 12 0
BBX 9 5 1 4
BITMAP
6300
9480
8880
9480
6300
ENDCHAR
STARTCHAR 221F
ENCODING 8735
SWIDTH 1020 0
DWIDTH 17 0
BBX 11 11 3 0
BITMAP
8000
8000
8000
8000
8000
8000
8000
8000
8000
8000
FFE0
ENDCHAR
STARTCHAR 2229
ENCODING 8745
SWIDTH 600 0
DWIDTH 10 0
BBX 8 12 1 0
BITMAP
3C
42
81
81
81
81
81
81
81
81
81
81
ENDCHAR
STARTCHAR 222B
ENCODING 8747
SWIDTH 300 0
DWIDTH 5 0
BBX 5 16 0 -1
BITMAP
18
20
20
20
20
20
20
20
20
20
20
20
20
20
20
C0
ENDCHAR
STARTCHAR 2248
ENCODING 8776
SWIDTH 540 0
DWIDTH 9 0
BBX 8 5 0 4
BITMAP
71
8E
00
71
8E
ENDCHAR
STARTCHAR 2260
ENCODING 8800
SWIDTH 540 0
DWIDTH 9 0
BBX 8 13 0 0
BITMAP
02
04
04
04
FF
08
10
10
FF
20
20
20
40
ENDCHAR
STARTCHAR 2261
ENCODING 8801
SWIDTH 600 0
DWIDTH 10 0
BBX 8 9 1 2
BITMAP
FF
00
00
00
FF
00
00
00
FF
ENDCHAR
STARTCHAR 2264
ENCODING 8804
SWIDTH 540 0
DWIDTH 9 0
BBX 8 11 0 1
BITMAP
01
06
18
20
C0
20
18
06
01
00
FF
ENDCHAR
STARTCHAR 2265
ENCODING 8805
SWIDTH 540 0
DWIDTH 9 0
BBX 8 11 0 1
BITMAP
80
60
18
04
03
04
18
60
80
00
FF
ENDCHAR
STARTCHAR 2302
ENCODING 8962
SWIDTH 600 0
DWIDTH 10 0
BBX 8 9 1 0
BITMAP
18
24
42
81
81
81
81
81
FF
ENDCHAR
STARTCHAR 2310
ENCODING 8976
SWIDTH 600 0
DWIDTH 10 0
BBX 8 5 1 4
BITMAP
FF
80
80
80
80
ENDCHAR
STARTCHAR 2320
ENCODING 8992
SWIDTH 600 0
DWIDTH 10 0
BBX 4 18 4 -4
BITMAP
70
40
40
C0
C0
C0
C0
C0
C0
C0
C0
C0
C0
C0
C0
C0
C0
C0
ENDCHAR
STARTCHAR 2321
ENCODING 8993
SWIDTH 600 0
DWIDTH 10 0
BBX 4 18 2 -4
BITMAP
30
30
30
30
30
30
30
30
30
30
30
30
30
30
30
30
20
E0
ENDCHAR
STARTCHAR 2500
ENCODING 9472
SWIDTH 720 0
DWIDTH 12 0
BBX 12 2 0 4
BITMAP
FFF0
FFF0
ENDCHAR
STARTCHAR 2502
ENCODING 9474
SWIDTH 720 0
DWIDTH 12 0
BBX 2 20 5 -5
BITMAP
C0
C0
C0
C0
C0
C0
C0
C0
C0
C0
C0
C0
C0
C0
C0
C0
C0
C0
C0
C0
ENDCHAR
STARTCHAR 250C
ENCODING 9484
SWIDTH 720 0
DWIDTH 12 0
BBX 7 11 5 -5
BITMAP
FE
FE
C0
C0
C0
C0
C0
C0
C0
C0
C0
ENDCHAR
STARTCHAR 2510
ENCODING 9488
SWIDTH 720 0
DWIDTH 12 0
BBX 7 11 0 -5
BITMAP
FE
FE
06
06
06
06
06
06
06
06
06
ENDCHAR
STARTCHAR 2514
ENCODING 9492
SWIDTH 720 0
DWIDTH 12 0
BBX 7 11 5 4
BITMAP
C0
C0
C0
C0
C0
C0
C0
C0
C0
FE
FE
ENDCHAR
STARTCHAR 2518
ENCODING 9496
SWIDTH 720 0
DWIDTH 12 0
BBX 7 11 0 4
BITMAP
06
06
06
06
06
06
06
06
06
FE
FE
ENDCHAR
STARTCHAR 251C
ENCODING 9500
SWIDTH 720 0
DWIDTH 12 0
BBX 7 20 5 -5
BITMAP
C0
C0
C0
C0
C0
C0
C0
C0
C0
FE
FE
C0
C0
C0
C0
C0
C0
C0
C0
C0
ENDCHAR
STARTCHAR 2524
ENCODING 9508
SWIDTH 720 0
DWIDTH 12 0
BBX 7 20 0 -5
BITMAP
06
06
06
06
06
06
06
06
06
FE
FE
06
06
06
06
06
06
06
06
06
ENDCHAR
STARTCHAR 252C
ENCODING 9516
SWIDTH 720 0
DWIDTH 12 0
BBX 12 11 0 -5
BITMAP
FFF0
FFF0
0600
0600
0600
0600
0600
0600
0600
0600
0600
ENDCHAR
STARTCHAR 2534
ENCODING 9524
SWIDTH 720 0
DWIDTH 12 0
BBX 12 11 0 4
BITMAP
0600
0600
0600
0600
0600
0600
0600
0600
0600
FFF0
FFF0
ENDCHAR
STARTCHAR 253C
ENCODING 9532
SWIDTH 720 0
DWIDTH 12 0
BBX 12 20 0 -5
BITMAP
0600
0600
0600
0600
0600
0600
0600
0600
0600
FFF0
FFF0
0600
0600
0600
0600
0600
0600
0600
0600
0600
ENDCHAR
STARTCHAR 2550
ENCODING 9552
SWIDTH 720 0
DWIDTH 12 0
BBX 12 4 0 3
BITMAP
FFF0
0000
0000
FFF0
ENDCHAR
STARTCHAR 2551
ENCODING 9553
SWIDTH 720 0
DWIDTH 12 0
BBX 4 20 4 -5
BITMAP
90
90
90
90
90
90
90
90
90
90
90
90
90
90
90
90
90
90
90
90
ENDCHAR
STARTCHAR 2552
ENCODING 9554
SWIDTH 720 0
DWIDTH 12 0
BBX 7 12 5 -5
BITMAP
FE
C0
C0
FE
C0
C0
C0
C0
C0
C0
C0
C0
ENDCHAR
STARTCHAR 2553
ENCODING 9555
SWIDTH 720 0
DWIDTH 12 0
BBX 8 11 4 -5
BITMAP
FF
FF
90
90
90
90
90
90
90
90
90
ENDCHAR
STARTCHAR 2554
ENCODING 9556
SWIDTH 720 0
DWIDTH 12 0
BBX 8 12 4 -5
BITMAP
FF
80
80
9F
90
90
90
90
90
90
90
90
ENDCHAR
STARTCHAR 2555
ENCODING 9557
SWIDTH 720 0
DWIDTH 12 0
BBX 7 12 0 -5
BITMAP
FE
06
06
FE
06
06
06
06
06
06
06
06
ENDCHAR
STARTCHAR 2556
ENCODING 9558
SWIDTH 720 0
DWIDTH 12 0
BBX 8 11 0 -5
BITMAP
FF
FF
09
09
09
09
09
09
09
09
09
ENDCHAR
STARTCHAR 2557
ENCODING 9559
SWIDTH 720 0
DWIDTH 12 0
BBX 8 12 0 -5
BITMAP
FF
01
01
F9
09
09
09
09
09
09
09
09
ENDCHAR
STARTCHAR 2558
ENCODING 9560
SWIDTH 720 0
DWIDTH 12 0
BBX 7 12 5 3
BITMAP
C0
C0
C0
C0
C0
C0
C0
C0
FE
C0
C0
FE
ENDCHAR
STARTCHAR 2559
ENCODING 9561
SWIDTH 720 0
DWIDTH 12 0
BBX 8 11 4 4
BITMAP
90
90
90
90
90
90
90
90
90
FF
FF
ENDCHAR
STARTCHAR 255A
ENCODING 9562
SWIDTH 720 0
DWIDTH 12 0
BBX 8 12 4 3
BITMAP
90
90
90
90
90
90
90
90
9F
80
80
FF
ENDCHAR
STARTCHAR 255B
ENCODING 9563
SWIDTH 720 0
DWIDTH 12 0
BBX 7 12 0 3
BITMAP
06
06
06
06
06
06
06
06
FE
06
06
FE
ENDCHAR
STARTCHAR 255C
ENCODING 9564
SWIDTH 720 0
DWIDTH 12 0
BBX 8 11 0 4
BITMAP
09
09
09
09
09
09
09
09
09
FF
FF
ENDCHAR
STARTCHAR 255D
ENCODING 9565
SWIDTH 720 0
DWIDTH 12 0
BBX 8 12 0 3
BITMAP
09
09
09
09
09
09
09
09
F9
01
01
FF
ENDCHAR
STARTCHAR 255E
ENCODING 9566
SWIDTH 720 0
DWIDTH 12 0
BBX 7 20 5 -5
BITMAP
C0
C0
C0
C0
C0
C0
C0
C0
FE
C0
C0
FE
C0
C0
C0
C0
C0
C0
C0
C0
ENDCHAR
STARTCHAR 255F
ENCODING 9567
SWIDTH 720 0
DWIDTH 12 0
BBX 8 20 4 -5
BITMAP
90
90
90
90
90
90
90
90
90
9F
9F
90
90
90
90
90
90
90
90
90
ENDCHAR
STARTCHAR 2560
ENCODING 9568
SWIDTH 720 0
DWIDTH 12 0
BBX 8 20 4 -5
BITMAP
90
90
90
90
90
90
90
90
9F
80
80
9F
90
90
90
90
90
90
90
90
ENDCHAR
STARTCHAR 2561
ENCODING 9569
SWIDTH 720 0
DWIDTH 12 0
BBX 7 20 0 -5
BITMAP
06
06
06
06
06
06
06
06
FE
06
06
FE
06
06
06
06
06
06
06
06
ENDCHAR
STARTCHAR 2562
ENCODING 9570
SWIDTH 720 0
DWIDTH 12 0
BBX 8 20 0 -5
BITMAP
09
09
09
09
09
09
09
09
09
F9
F9
09
09
09
09
09
09
09
09
09
ENDCHAR
STARTCHAR 2563
ENCODING 9571
SWIDTH 720 0
DWIDTH 12 0
BBX 8 20 0 -5
BITMAP
09
09
09
09
09
09
09
09
F9
01
01
F9
09
09
09
09
09
09
09
09
ENDCHAR
STARTCHAR 2564
ENCODING 9572
SWIDTH 720 0
DWIDTH 12 0
BBX 12 12 0 -5
BITMAP
FFF0
0000
0000
FFF0
0600
0600
0600
0600
0600
0600
0600
0600
ENDCHAR
STARTCHAR 2565
ENCODING 9573
SWIDTH 720 0
DWIDTH 12 0
BBX 12 11 0 -5
BITMAP
FFF0
FFF0
0900
0900
0900
0900
0900
0900
0900
0900
0900
ENDCHAR
STARTCHAR 2566
ENCODING 9574
SWIDTH 720 0
DWIDTH 12 0
BBX 12 12 0 -5
BITMAP
FFF0
0000
0000
F9F0
0900
0900
0900
0900
0900
0900
0900
0900
ENDCHAR
STARTCHAR 2567
ENCODING 9575
SWIDTH 720 0
DWIDTH 12 0
BBX 12 12 0 3
BITMAP
0600
0600
0600
0600
0600
0600
0600
0600
FFF0
0000
0000
FFF0
ENDCHAR
STARTCHAR 2568
ENCODING 9576
SWIDTH 720 0
DWIDTH 12 0
BBX 12 11 0 4
BITMAP
0900
0900
0900
0900
0900
0900
0900
0900
0900
FFF0
FFF0
ENDCHAR
STARTCHAR 2569
ENCODING 9577
SWIDTH 720 0
DWIDTH 12 0
BBX 12 12 0 3
BITMAP
0900
0900
0900
0900
0900
0900
0900
0900
F9F0
0000
0000
FFF0
ENDCHAR
STARTCHAR 256A
ENCODING 9578
SWIDTH 720 0
DWIDTH 12 0
BBX 12 20 0 -5
BITMAP
0600
0600
0600
0600
0600
0600
0600
0600
FFF0
0600
0600
FFF0
0600
0600
0600
0600
0600
0600
0600
0600
ENDCHAR
STARTCHAR 256B
ENCODING 9579
SWIDTH 720 0
DWIDTH 12 0
BBX 12 20 0 -5
BITMAP
0900
0900
0900
0900
0900
0900
0900
0900
0900
FFF0
FFF0
0900
0900
0900
0900
0900
0900
0900
0900
0900
ENDCHAR
STARTCHAR 256C
ENCODING 9580
SWIDTH 720 0
DWIDTH 12 0
BBX 12 20 0 -5
BITMAP
0900
0900
0900
0900
0900
0900
0900
0900
F9F0
0000
0000
F9F0
0900
0900
0900
0900
0900
0900
0900
0900
ENDCHAR
STARTCHAR 2580
ENCODING 9600
SWIDTH 720 0
DWIDTH 12 0
BBX 12 10 0 5
BITMAP
FFF0
FFF0
FFF0
FFF0
FFF0
FFF0
FFF0
FFF0
FFF0
FFF0
ENDCHAR
STARTCHAR 2584
ENCODING 9604
SWIDTH 720 0
DWIDTH 12 0
BBX 12 10 0 -5
BITMAP
FFF0
FFF0
FFF0
FFF0
FFF0
FFF0
FFF0
FFF0
FFF0
FFF0
ENDCHAR
STARTCHAR 2588
ENCODING 9608
SWIDTH 720 0
DWIDTH 12 0
BBX 12 20 0 -5
BITMAP
FFF0
FFF0
FFF0
FFF0
FFF0
FFF0
FFF0
FFF0
FFF0
FFF0
FFF0
FFF0
FFF0
FFF0
FFF0
FFF0
FFF0
FFF0
FFF0
FFF0
ENDCHAR
STARTCHAR 258C
ENCODING 9612
SWIDTH 720 0
DWIDTH 12 0
BBX 6 20 0 -5
BITMAP
FC
FC
FC
FC
FC
FC
FC
FC
FC
FC
FC
FC
FC
FC
FC
FC
FC
FC
FC
FC
ENDCHAR
STARTCHAR 2590
ENCODING 9616
SWIDTH 720 0
DWIDTH 12 0
BBX 6 20 6 -5
BITMAP
FC
FC
FC
FC
FC
FC
FC
FC
FC
FC
FC
FC
FC
FC
FC
FC
FC
FC
FC
FC
ENDCHAR
STARTCHAR 2591
ENCODING 9617
SWIDTH 720 0
DWIDTH 12 0
BBX 11 19 1 -4
BITMAP
8880
0000
2220
0000
8880
0000
2220
0000
8880
0000
2220
0000
8880
0000
2220
0000
8880
0000
2220
ENDCHAR
STARTCHAR 2592
ENCODING 9618
SWIDTH 720 0
DWIDTH 12 0
BBX 12 19 0 -4
BITMAP
5550
0000
AAA0
0000
5550
0000
AAA0
0000
5550
0000
AAA0
0000
5550
0000
AAA0
0000
5550
0000
AAA0
ENDCHAR
STARTCHAR 2593
ENCODING 9619
SWIDTH 720 0
DWIDTH 12 0
BBX 12 20 0 -5
BITMAP
5550
FFF0
AAA0
FFF0
5550
FFF0
AAA0
FFF0
5550
FFF0
AAA0
FFF0
5550
FFF0
AAA0
FFF0
5550
FFF0
AAA0
FFF0
ENDCHAR
STARTCHAR 25A0
ENCODING 9632
SWIDTH 600 0
DWIDTH 10 0
BBX 8 8 1 0
BITMAP
FF
FF
FF
FF
FF
FF
FF
FF
ENDCHAR
STARTCHAR 25A1
ENCODING 9633
SWIDTH 600 0
DWIDTH 10 0
BBX 8 8 1 0
BITMAP
FF
81
81
81
81
81
81
FF
ENDCHAR
STARTCHAR 25AA
ENCODING 9642
SWIDTH 360 0
DWIDTH 6 0
BBX 4 4 1 4
BITMAP
F0
F0
F0
F0
ENDCHAR
STARTCHAR 25AB
ENCODING 9643
SWIDTH 360 0
DWIDTH 6 0
BBX 4 4 1 4
BITMAP
F0
90
90
F0
ENDCHAR
STARTCHAR 25AC
ENCODING 9644
SWIDTH 1020 0
DWIDTH 17 0
BBX 17 3 0 3
BITMAP
FFFF80
FFFF80
FFFF80
ENDCHAR
STARTCHAR 25B2
ENCODING 9650
SWIDTH 1020 0
DWIDTH 17 0
BBX 11 12 3 0
BITMAP
0400
0400
0E00
0E00
1F00
1F00
3F80
3F80
7FC0
7FC0
FFE0
FFE0
ENDCHAR
STARTCHAR 25BA
ENCODING 9658
SWIDTH 1020 0
DWIDTH 17 0
BBX 12 12 2 0
BITMAP
8000
E000
F800
FE00
FF80
FFE0
FFF0
FFC0
FF00
FC00
F000
C000
ENDCHAR
STARTCHAR 25BC
ENCODING 9660
SWIDTH 1020 0
DWIDTH 17 0
BBX 11 12 3 0
BITMAP
FFE0
FFE0
7FC0
7FC0
3F80
3F80
1F00
1F00
0E00
0E00
0400
0400
ENDCHAR
STARTCHAR 25C4
ENCODING 9668
SWIDTH 1020 0
DWIDTH 17 0
BBX 11 11 3 0
BITMAP
0060
01E0
07E0
1FE0
7FE0
FFE0
3FE0
0FE0
03E0
00E0
0020
ENDCHAR
STARTCHAR 25CA
ENCODING 9674
SWIDTH 480 0
DWIDTH 8 0
BBX 7 11 0 0
BITMAP
10
28
28
44
44
82
84
44
28
28
10
ENDCHAR
STARTCHAR 25CB
ENCODING 9675
SWIDTH 600 0
DWIDTH 10 0
BBX 8 7 1 1
BITMAP
3E
42
81
81
81
42
3C
ENDCHAR
STARTCHAR 25CF
ENCODING 9679
SWIDTH 600 0
DWIDTH 10 0
BBX 8 8 1 1
BITMAP
3C
7E
FF
FF
FF
FF
7E
3C
ENDCHAR
STARTCHAR 25D8
ENCODING 9688
SWIDTH 600 0
DWIDTH 10 0
BBX 8 8 1 0
BITMAP
FF
FF
E7
C3
E3
F7
FF
FF
ENDCHAR
STARTCHAR 25D9
ENCODING 9689
SWIDTH 600 0
DWIDTH 10 0
BBX 10 10 0 0
BITMAP
FFC0
FFC0
ECC0
DFC0
FF40
BF40
FF40
DEC0
F1C0
FFC0
ENDCHAR
STARTCHAR 25E6
ENCODING 9702
SWIDTH 360 0
DWIDTH 6 0
BBX 4 4 1 4
BITMAP
60
90
90
60
ENDCHAR
STARTCHAR 263A
ENCODING 9786
SWIDTH 1020 0
DWIDTH 17 0
BBX 11 11 3 -1
BITMAP
0600
3980
4040
4020
9120
8020
8020
5120
4E40
2080
1F00
ENDCHAR
STARTCHAR 263B
ENCODING 9787
SWIDTH 1080 0
DWIDTH 18 0
BBX 10 11 4 -1
BITMAP
0C00
3F00
7F80
FFC0
CCC0
FFC0
FFC0
FFC0
E180
7F80
1E00
ENDCHAR
STARTCHAR 263C
ENCODING 9788
SWIDTH 960 0
DWIDTH 16 0
BBX 14 15 1 -2
BITMAP
0200
4208
2310
1CE0
1020
2020
2010
E01C
2020
2020
1060
2F90
4208
0200
0200
ENDCHAR
STARTCHAR 2640
ENCODING 9792
SWIDTH 540 0
DWIDTH 9 0
BBX 9 15 0 -3
BITMAP
1C00
6300
4100
8080
8080
8100
4100
3200
0C00
0800
0800
3E00
0800
0800
0800
ENDCHAR
STARTCHAR 2642
ENCODING 9794
SWIDTH 660 0
DWIDTH 11 0
BBX 11 14 0 -3
BITMAP
00C0
03C0
0140
0140
0220
0200
1C00
6200
4100
8080
8080
4180
4300
3E00
ENDCHAR
STARTCHAR 2660
ENCODING 9824
SWIDTH 540 0
DWIDTH 9 0
BBX 8 10 1 0
BITMAP
10
10
38
7C
FE
FF
FE
D6
10
3C
ENDCHAR
STARTCHAR 2663
ENCODING 9827
SWIDTH 660 0
DWIDTH 11 0
BBX 10 10 1 0
BITMAP
1C00
3E00
3E00
FF80
FFC0
FFC0
F780
6B00
0C00
3E00
ENDCHAR
STARTCHAR 2665
ENCODING 9829
SWIDTH 600 0
DWIDTH 10 0
BBX 9 9 1 1
BITMAP
E700
FF80
FF00
FF00
7F00
7E00
3C00
1800
1800
ENDCHAR
STARTCHAR 2666
ENCODING 9830
SWIDTH 540 0
DWIDTH 9 0
BBX 7 10 1 0
BITMAP
10
30
78
7C
FE
FE
7C
78
30
10
ENDCHAR
STARTCHAR 266A
ENCODING 9834
SWIDTH 780 0
DWIDTH 13 0
BBX 13 17 0 -4
BITMAP
0080
00C0
0160
0130
0118
0108
0100
0100
0100
0100
0100
3F00
7F00
FF00
FF00
7F00
3C00
ENDCHAR
STARTCHAR 266B
ENCODING 9835
SWIDTH 1020 0
DWIDTH 17 0
BBX 12 16 3 -4
BITMAP
0070
03F0
0FF0
0E10
0810
0810
0810
0810
0810
08F0
09F0
7BF0
F9E0
F9C0
F000
6000
ENDCHAR
STARTCHAR F000
ENCODING 61440
SWIDTH 780 0
DWIDTH 13 0
BBX 1 1 0 0
BITMAP
00
ENDCHAR
STARTCHAR F001
ENCODING 61441
SWIDTH 480 0
DWIDTH 8 0
BBX 6 13 1 0
BITMAP
38
44
40
40
F4
44
44
44
44
44
44
44
44
ENDCHAR
STARTCHAR F002
ENCODING 61442
SWIDTH 480 0
DWIDTH 8 0
BBX 6 13 1 0
BITMAP
38
44
44
44
F4
44
44
44
44
44
44
44
44
ENDCHAR
STARTCHAR F003
ENCODING 61443
SWIDTH 360 0
DWIDTH 6 0
BBX 6 6 0 6
BITMAP
08
18
28
48
FC
08
ENDCHAR
STARTCHAR F004
ENCODING 61444
SWIDTH 360 0
DWIDTH 6 0
BBX 2 3 2 -4
BITMAP
40
80
80
ENDCHAR
STARTCHAR F005
ENCODING 61445
SWIDTH 360 0
DWIDTH 6 0
BBX 3 3 1 -3
BITMAP
60
20
C0
ENDCHAR
STARTCHAR F006
ENCODING 61446
SWIDTH 540 0
DWIDTH 9 0
BBX 9 9 0 0
BITMAP
FF80
4100
4100
4100
4100
4100
4100
4100
4100
ENDCHAR
STARTCHAR F100
ENCODING 61696
SWIDTH 540 0
DWIDTH 9 0
BBX 7 12 2 0
BITMAP
FE
80
80
80
80
80
80
80
80
80
80
80
ENDCHAR
STARTCHAR F101
ENCODING 61697
SWIDTH 780 0
DWIDTH 13 0
BBX 11 12 1 0
BITMAP
1F00
2080
4040
8020
8020
9F20
8020
8020
8020
4040
2080
1F00
ENDCHAR
STARTCHAR F102
ENCODING 61698
SWIDTH 840 0
DWIDTH 14 0
BBX 11 13 1 -1
BITMAP
0400
0400
3F80
4440
8420
8420
8420
8420
4440
3F80
0400
0400
0400
ENDCHAR
STARTCHAR F103
ENCODING 61699
SWIDTH 660 0
DWIDTH 11 0
BBX 9 9 1 0
BITMAP
3C80
4300
8100
8100
8100
8100
8100
4300
3C80
ENDCHAR
STARTCHAR F104
ENCODING 61700
SWIDTH 660 0
DWIDTH 11 0
BBX 9 13 1 0
BITMAP
1F00
2000
2000
1000
0C00
3E00
4100
8080
8080
8080
8080
4100
3E00
ENDCHAR
STARTCHAR F105
ENCODING 61701
SWIDTH 540 0
DWIDTH 9 0
BBX 7 9 1 0
BITMAP
1E
60
40
80
FE
80
80
40
3E
ENDCHAR
STARTCHAR F106
ENCODING 61702
SWIDTH 720 0
DWIDTH 12 0
BBX 11 9 1 0
BITMAP
3FE0
4100
8080
8080
8080
8080
8080
4100
3E00
ENDCHAR
STARTCHAR F107
ENCODING 61703
SWIDTH 480 0
DWIDTH 8 0
BBX 7 9 0 0
BITMAP
FE
10
10
10
10
10
10
10
10
ENDCHAR
STARTCHAR F108
ENCODING 61704
SWIDTH 780 0
DWIDTH 13 0
BBX 11 14 1 -3
BITMAP
0400
0400
3F80
4440
8420
8420
8420
8420
8420
4440
3F80
0400
0400
0400
ENDCHAR
STARTCHAR FB01
ENCODING 64257
SWIDTH 480 0
DWIDTH 8 0
BBX 6 13 1 0
BITMAP
38
44
40
40
F4
44
44
44
44
44
44
44
44
ENDCHAR
STARTCHAR FB02
ENCODING 64258
SWIDTH 480 0
DWIDTH 8 0
BBX 6 13 1 0
BITMAP
38
44
44
44
F4
44
44
44
44
44
44
44
44
ENDCHAR
ENDFONT
